<?xml version="1.0" encoding="UTF-8" standalone="no"?>
<!DOCTYPE svg PUBLIC "-//W3C//DTD SVG 1.1//EN"
 "http://www.w3.org/Graphics/SVG/1.1/DTD/svg11.dtd">
<!-- Generated by graphviz version 2.38.0 (20140413.2041)
 -->
<!-- Title: G Pages: 1 -->
<svg width="1378pt" height="1063pt"
 viewBox="0.00 0.00 1984.25 1530.50" xmlns="http://www.w3.org/2000/svg" xmlns:xlink="http://www.w3.org/1999/xlink">
<g id="graph0" class="graph" transform="scale(0.694444 0.694444) rotate(0) translate(1002.42 751.708)">
<title>G</title>
<polygon fill="white" stroke="none" points="-1002.42,778.79 -1002.42,-751.708 981.829,-751.708 981.829,778.79 -1002.42,778.79"/>
<!-- 35028&#45;&gt;32046 -->
<g id="edge59" class="edge"><title>35028&#45;&gt;32046</title>
<path fill="none" stroke="#000000" stroke-opacity="0.250980" d="M-70.6278,-283.16C-195.788,-389.863 -216.572,-404.931 -289.268,-423.363"/>
<polygon fill="#000000" fill-opacity="0.250980" stroke="#000000" stroke-opacity="0.250980" points="-290.525,-420.069 -299.388,-425.874 -288.839,-426.863 -290.525,-420.069"/>
<text text-anchor="middle" x="-229.583" y="-389.167" font-family="Helvetica,sans-Serif" font-size="14.00">IN_YEAR</text>
</g>
<!-- 35028&#45;&gt;32087 -->
<g id="edge60" class="edge"><title>35028&#45;&gt;32087</title>
<path fill="none" stroke="#000000" stroke-opacity="0.250980" d="M-36.1919,-283.21C-2.5845,-370.697 7.1921,-393.848 29.7701,-420.895"/>
<polygon fill="#000000" fill-opacity="0.250980" stroke="#000000" stroke-opacity="0.250980" points="27.3186,-423.41 36.5082,-428.683 32.6125,-418.831 27.3186,-423.41"/>
<text text-anchor="middle" x="-48.608" y="-377.525" font-family="Helvetica,sans-Serif" font-size="14.00">IN_CATEGORY</text>
</g>
<!-- 35028&#45;&gt;32631 -->
<g id="edge57" class="edge"><title>35028&#45;&gt;32631</title>
<path fill="none" stroke="#000000" stroke-opacity="0.250980" d="M-28.1729,-239.008C11.8811,-184.786 18.1437,-165.552 51.3043,-22.2202"/>
<polygon fill="#000000" fill-opacity="0.250980" stroke="#000000" stroke-opacity="0.250980" points="54.7919,-22.673 53.6335,-12.1417 47.9716,-21.0968 54.7919,-22.673"/>
<text text-anchor="middle" x="-16.4072" y="-132.112" font-family="Helvetica,sans-Serif" font-size="14.00">NOMINATED</text>
</g>
<!-- 35028&#45;&gt;33588 -->
<g id="edge58" class="edge"><title>35028&#45;&gt;33588</title>
<path fill="none" stroke="#000000" stroke-opacity="0.250980" d="M-54.2913,-283.479C-173.05,-561.381 -184.988,-588.111 -247.83,-688.076"/>
<polygon fill="#000000" fill-opacity="0.250980" stroke="#000000" stroke-opacity="0.250980" points="-250.886,-686.361 -253.255,-696.688 -244.963,-690.092 -250.886,-686.361"/>
<text text-anchor="middle" x="-213.258" y="-555.306" font-family="Helvetica,sans-Serif" font-size="14.00">FOR_MOVIE</text>
</g>
<!-- 35048&#45;&gt;32047 -->
<g id="edge55" class="edge"><title>35048&#45;&gt;32047</title>
<path fill="none" stroke="#000000" stroke-opacity="0.250980" d="M361.844,-256.735C700.189,-530.207 728.827,-553.542 857.787,-665.121"/>
<polygon fill="#000000" fill-opacity="0.250980" stroke="#000000" stroke-opacity="0.250980" points="855.765,-667.999 865.617,-671.897 860.346,-662.706 855.765,-667.999"/>
<text text-anchor="middle" x="658.381" y="-524.439" font-family="Helvetica,sans-Serif" font-size="14.00">IN_YEAR</text>
</g>
<!-- 35048&#45;&gt;32087 -->
<g id="edge54" class="edge"><title>35048&#45;&gt;32087</title>
<path fill="none" stroke="#000000" stroke-opacity="0.250980" d="M320.969,-256.932C250.301,-372.13 230.353,-398.294 145.122,-425.973"/>
<polygon fill="#000000" fill-opacity="0.250980" stroke="#000000" stroke-opacity="0.250980" points="144.015,-422.652 135.539,-429.009 146.129,-429.325 144.015,-422.652"/>
<text text-anchor="middle" x="188.961" y="-377.081" font-family="Helvetica,sans-Serif" font-size="14.00">IN_CATEGORY</text>
</g>
<!-- 35048&#45;&gt;32631 -->
<g id="edge53" class="edge"><title>35048&#45;&gt;32631</title>
<path fill="none" stroke="#000000" stroke-opacity="0.250980" d="M314.908,-212.625C261.914,-153.509 243.157,-137.324 94.7847,-18.5092"/>
<polygon fill="#000000" fill-opacity="0.250980" stroke="#000000" stroke-opacity="0.250980" points="96.6887,-15.55 86.6949,-12.032 92.3136,-21.0143 96.6887,-15.55"/>
<text text-anchor="middle" x="246.482" y="-110.457" font-family="Helvetica,sans-Serif" font-size="14.00">NOMINATED</text>
</g>
<!-- 35048&#45;&gt;33598 -->
<g id="edge56" class="edge"><title>35048&#45;&gt;33598</title>
<path fill="none" stroke="#000000" stroke-opacity="0.250980" d="M330.698,-256.726C278.418,-553.29 271.81,-577.454 151.487,-695.719"/>
<polygon fill="#000000" fill-opacity="0.250980" stroke="#000000" stroke-opacity="0.250980" points="148.851,-693.402 144.16,-702.902 153.751,-698.401 148.851,-693.402"/>
<text text-anchor="middle" x="225.38" y="-531.887" font-family="Helvetica,sans-Serif" font-size="14.00">FOR_MOVIE</text>
</g>
<!-- 35083&#45;&gt;32049 -->
<g id="edge51" class="edge"><title>35083&#45;&gt;32049</title>
<path fill="none" stroke="#000000" stroke-opacity="0.250980" d="M-169.531,-73.5819C-373.678,-59.9672 -403.621,-56.2229 -484.591,-25.0274"/>
<polygon fill="#000000" fill-opacity="0.250980" stroke="#000000" stroke-opacity="0.250980" points="-483.604,-21.656 -494.193,-21.2962 -486.139,-28.1807 -483.604,-21.656"/>
<text text-anchor="middle" x="-403.211" y="-58.6968" font-family="Helvetica,sans-Serif" font-size="14.00">IN_YEAR</text>
</g>
<!-- 35083&#45;&gt;32089 -->
<g id="edge50" class="edge"><title>35083&#45;&gt;32089</title>
<path fill="none" stroke="#000000" stroke-opacity="0.250980" d="M-122.808,-54.5301C-124.519,-9.8621 -120.366,2.99915 -85.5275,50.4714"/>
<polygon fill="#000000" fill-opacity="0.250980" stroke="#000000" stroke-opacity="0.250980" points="-82.5501,48.6112 -79.4195,58.733 -88.1788,52.7726 -82.5501,48.6112"/>
<text text-anchor="middle" x="-162.799" y="5.00301" font-family="Helvetica,sans-Serif" font-size="14.00">IN_CATEGORY</text>
</g>
<!-- 35083&#45;&gt;32631 -->
<g id="edge49" class="edge"><title>35083&#45;&gt;32631</title>
<path fill="none" stroke="#000000" stroke-opacity="0.250980" d="M-73.8219,-70.7416C-46.2044,-64.9931 -26.9456,-53.34 21.0109,-17.918"/>
<polygon fill="#000000" fill-opacity="0.250980" stroke="#000000" stroke-opacity="0.250980" points="23.3443,-20.5451 29.2933,-11.7781 19.1756,-14.9217 23.3443,-20.5451"/>
<text text-anchor="middle" x="-60.4931" y="-35.0468" font-family="Helvetica,sans-Serif" font-size="14.00">NOMINATED</text>
</g>
<!-- 35083&#45;&gt;33631 -->
<g id="edge52" class="edge"><title>35083&#45;&gt;33631</title>
<path fill="none" stroke="#000000" stroke-opacity="0.250980" d="M-161.412,-98.9574C-261.563,-154.993 -295.81,-173.836 -332.344,-191.239"/>
<polygon fill="#000000" fill-opacity="0.250980" stroke="#000000" stroke-opacity="0.250980" points="-334.166,-188.228 -341.723,-195.654 -331.185,-194.562 -334.166,-188.228"/>
<text text-anchor="middle" x="-311.971" y="-162.391" font-family="Helvetica,sans-Serif" font-size="14.00">FOR_MOVIE</text>
</g>
<!-- 35102&#45;&gt;32050 -->
<g id="edge47" class="edge"><title>35102&#45;&gt;32050</title>
<path fill="none" stroke="#000000" stroke-opacity="0.250980" d="M213.975,-120.376C404.507,-290.354 427.935,-311.867 493.138,-385.273"/>
<polygon fill="#000000" fill-opacity="0.250980" stroke="#000000" stroke-opacity="0.250980" points="490.759,-387.866 500.012,-393.028 495.998,-383.223 490.759,-387.866"/>
<text text-anchor="middle" x="370.601" y="-291.84" font-family="Helvetica,sans-Serif" font-size="14.00">IN_YEAR</text>
</g>
<!-- 35102&#45;&gt;32089 -->
<g id="edge48" class="edge"><title>35102&#45;&gt;32089</title>
<path fill="none" stroke="#000000" stroke-opacity="0.250980" d="M168.194,-75.9245C124.88,-30.4303 105.213,-16.875 -15.6665,53.4634"/>
<polygon fill="#000000" fill-opacity="0.250980" stroke="#000000" stroke-opacity="0.250980" points="-14.1423,56.6258 -24.5464,58.6272 -17.6612,50.5746 -14.1423,56.6258"/>
<text text-anchor="middle" x="125.768" y="-4.11594" font-family="Helvetica,sans-Serif" font-size="14.00">IN_CATEGORY</text>
</g>
<!-- 35102&#45;&gt;32631 -->
<g id="edge45" class="edge"><title>35102&#45;&gt;32631</title>
<path fill="none" stroke="#000000" stroke-opacity="0.250980" d="M170.234,-76.0171C154.553,-58.576 140.969,-47.7089 98.5847,-17.6937"/>
<polygon fill="#000000" fill-opacity="0.250980" stroke="#000000" stroke-opacity="0.250980" points="100.515,-14.7723 90.3284,-11.8605 96.476,-20.4894 100.515,-14.7723"/>
<text text-anchor="middle" x="90.2971" y="-44.5264" font-family="Helvetica,sans-Serif" font-size="14.00">NOMINATED</text>
</g>
<!-- 35102&#45;&gt;33642 -->
<g id="edge46" class="edge"><title>35102&#45;&gt;33642</title>
<path fill="none" stroke="#000000" stroke-opacity="0.250980" d="M256.272,-116.189C403.938,-155.821 447.513,-166.673 504.241,-174.714"/>
<polygon fill="#000000" fill-opacity="0.250980" stroke="#000000" stroke-opacity="0.250980" points="503.858,-178.194 514.241,-176.086 504.81,-171.259 503.858,-178.194"/>
<text text-anchor="middle" x="373.137" y="-160.1" font-family="Helvetica,sans-Serif" font-size="14.00">FOR_MOVIE</text>
</g>
<!-- 35121&#45;&gt;32051 -->
<g id="edge44" class="edge"><title>35121&#45;&gt;32051</title>
<path fill="none" stroke="#000000" stroke-opacity="0.250980" d="M224.464,499.418C302.276,632.491 316.623,656.626 348.017,702.384"/>
<polygon fill="#000000" fill-opacity="0.250980" stroke="#000000" stroke-opacity="0.250980" points="351.084,700.667 353.873,710.888 345.319,704.637 351.084,700.667"/>
<text text-anchor="middle" x="273.695" y="630.849" font-family="Helvetica,sans-Serif" font-size="14.00">IN_YEAR</text>
</g>
<!-- 35121&#45;&gt;32089 -->
<g id="edge43" class="edge"><title>35121&#45;&gt;32089</title>
<path fill="none" stroke="#000000" stroke-opacity="0.250980" d="M189.001,454.912C106.057,372.57 92.1944,350.913 -44.9533,112.017"/>
<polygon fill="#000000" fill-opacity="0.250980" stroke="#000000" stroke-opacity="0.250980" points="-48.1517,113.476 -50.0947,103.061 -42.0808,109.991 -48.1517,113.476"/>
<text text-anchor="middle" x="7.2642" y="283.661" font-family="Helvetica,sans-Serif" font-size="14.00">IN_CATEGORY</text>
</g>
<!-- 35121&#45;&gt;32631 -->
<g id="edge41" class="edge"><title>35121&#45;&gt;32631</title>
<path fill="none" stroke="#000000" stroke-opacity="0.250980" d="M207.815,454.778C187.929,330.488 181.34,311.553 71.6592,41.8814"/>
<polygon fill="#000000" fill-opacity="0.250980" stroke="#000000" stroke-opacity="0.250980" points="68.4077,43.1768 67.8819,32.595 74.8918,40.5392 68.4077,43.1768"/>
<text text-anchor="middle" x="109.115" y="236.552" font-family="Helvetica,sans-Serif" font-size="14.00">NOMINATED</text>
</g>
<!-- 35121&#45;&gt;33652 -->
<g id="edge42" class="edge"><title>35121&#45;&gt;33652</title>
<path fill="none" stroke="#000000" stroke-opacity="0.250980" d="M255.144,499.004C616.531,680.666 649.51,694.184 834.771,705.572"/>
<polygon fill="#000000" fill-opacity="0.250980" stroke="#000000" stroke-opacity="0.250980" points="835.094,702.085 844.865,706.182 834.672,709.072 835.094,702.085"/>
<text text-anchor="middle" x="569.779" y="663.341" font-family="Helvetica,sans-Serif" font-size="14.00">FOR_MOVIE</text>
</g>
<!-- 35163&#45;&gt;32053 -->
<g id="edge39" class="edge"><title>35163&#45;&gt;32053</title>
<path fill="none" stroke="#000000" stroke-opacity="0.250980" d="M-417.348,189.409C-687.727,307.17 -718.691,320.671 -826.965,368.113"/>
<polygon fill="#000000" fill-opacity="0.250980" stroke="#000000" stroke-opacity="0.250980" points="-825.722,371.39 -836.286,372.198 -828.532,364.979 -825.722,371.39"/>
<text text-anchor="middle" x="-712.903" y="302.332" font-family="Helvetica,sans-Serif" font-size="14.00">IN_YEAR</text>
</g>
<!-- 35163&#45;&gt;32089 -->
<g id="edge40" class="edge"><title>35163&#45;&gt;32089</title>
<path fill="none" stroke="#000000" stroke-opacity="0.250980" d="M-321.859,161.62C-273.811,153.783 -243.081,144.389 -134.969,106.347"/>
<polygon fill="#000000" fill-opacity="0.250980" stroke="#000000" stroke-opacity="0.250980" points="-135.912,102.968 -125.317,102.947 -133.586,109.57 -135.912,102.968"/>
<text text-anchor="middle" x="-271.635" y="133.47" font-family="Helvetica,sans-Serif" font-size="14.00">IN_CATEGORY</text>
</g>
<!-- 35163&#45;&gt;32631 -->
<g id="edge37" class="edge"><title>35163&#45;&gt;32631</title>
<path fill="none" stroke="#000000" stroke-opacity="0.250980" d="M-321.597,155.245C-238.181,131.614 -202.193,117.661 1.32589,33.9457"/>
<polygon fill="#000000" fill-opacity="0.250980" stroke="#000000" stroke-opacity="0.250980" points="0.249626,30.6039 10.8292,30.036 2.9129,37.0775 0.249626,30.6039"/>
<text text-anchor="middle" x="-195.002" y="108.234" font-family="Helvetica,sans-Serif" font-size="14.00">NOMINATED</text>
</g>
<!-- 35163&#45;&gt;33677 -->
<g id="edge38" class="edge"><title>35163&#45;&gt;33677</title>
<path fill="none" stroke="#000000" stroke-opacity="0.250980" d="M-394.199,190.667C-733.852,494.992 -757.099,516.856 -871.613,664.355"/>
<polygon fill="#000000" fill-opacity="0.250980" stroke="#000000" stroke-opacity="0.250980" points="-868.955,666.639 -877.85,672.395 -874.486,662.349 -868.955,666.639"/>
<text text-anchor="middle" x="-758.562" y="483.522" font-family="Helvetica,sans-Serif" font-size="14.00">FOR_MOVIE</text>
</g>
<!-- 35203&#45;&gt;32055 -->
<g id="edge36" class="edge"><title>35203&#45;&gt;32055</title>
<path fill="none" stroke="#000000" stroke-opacity="0.250980" d="M-323.94,419.265C-463.901,587.68 -484.054,611.776 -537.678,672.487"/>
<polygon fill="#000000" fill-opacity="0.250980" stroke="#000000" stroke-opacity="0.250980" points="-535.149,674.91 -544.394,680.085 -540.394,670.274 -535.149,674.91"/>
<text text-anchor="middle" x="-493.143" y="583.468" font-family="Helvetica,sans-Serif" font-size="14.00">IN_YEAR</text>
</g>
<!-- 35203&#45;&gt;32089 -->
<g id="edge35" class="edge"><title>35203&#45;&gt;32089</title>
<path fill="none" stroke="#000000" stroke-opacity="0.250980" d="M-288.554,374.92C-234.601,304.375 -220.038,285.407 -86.0708,111.081"/>
<polygon fill="#000000" fill-opacity="0.250980" stroke="#000000" stroke-opacity="0.250980" points="-88.6773,108.728 -79.8087,102.932 -83.1269,112.994 -88.6773,108.728"/>
<text text-anchor="middle" x="-233.883" y="236.179" font-family="Helvetica,sans-Serif" font-size="14.00">IN_CATEGORY</text>
</g>
<!-- 35203&#45;&gt;32631 -->
<g id="edge33" class="edge"><title>35203&#45;&gt;32631</title>
<path fill="none" stroke="#000000" stroke-opacity="0.250980" d="M-277.666,374.796C-180.166,296.452 -160.622,274.451 34.058,40.0864"/>
<polygon fill="#000000" fill-opacity="0.250980" stroke="#000000" stroke-opacity="0.250980" points="31.3804,37.8323 40.4623,32.3762 36.7651,42.305 31.3804,37.8323"/>
<text text-anchor="middle" x="-68.1554" y="208.525" font-family="Helvetica,sans-Serif" font-size="14.00">NOMINATED</text>
</g>
<!-- 35203&#45;&gt;33700 -->
<g id="edge34" class="edge"><title>35203&#45;&gt;33700</title>
<path fill="none" stroke="#000000" stroke-opacity="0.250980" d="M-310.409,419.167C-343.178,565.922 -347.202,588.561 -338.332,649.643"/>
<polygon fill="#000000" fill-opacity="0.250980" stroke="#000000" stroke-opacity="0.250980" points="-334.831,649.391 -336.801,659.801 -341.753,650.435 -334.831,649.391"/>
<text text-anchor="middle" x="-381.213" y="563.738" font-family="Helvetica,sans-Serif" font-size="14.00">FOR_MOVIE</text>
</g>
<!-- 35222&#45;&gt;32056 -->
<g id="edge28" class="edge"><title>35222&#45;&gt;32056</title>
<path fill="none" stroke="#000000" stroke-opacity="0.250980" d="M427.045,175.751C711.002,299.01 742.385,312.913 854.241,367.011"/>
<polygon fill="#000000" fill-opacity="0.250980" stroke="#000000" stroke-opacity="0.250980" points="856.036,363.991 863.513,371.497 852.987,370.292 856.036,363.991"/>
<text text-anchor="middle" x="735.139" y="294.517" font-family="Helvetica,sans-Serif" font-size="14.00">IN_YEAR</text>
</g>
<!-- 35222&#45;&gt;32089 -->
<g id="edge26" class="edge"><title>35222&#45;&gt;32089</title>
<path fill="none" stroke="#000000" stroke-opacity="0.250980" d="M331.53,158.144C242.619,163.148 206.945,156.812 24.8265,105.643"/>
<polygon fill="#000000" fill-opacity="0.250980" stroke="#000000" stroke-opacity="0.250980" points="23.8718,109.01 15.1932,102.933 25.7673,102.272 23.8718,109.01"/>
<text text-anchor="middle" x="219.598" y="141.362" font-family="Helvetica,sans-Serif" font-size="14.00">IN_CATEGORY</text>
</g>
<!-- 35222&#45;&gt;32631 -->
<g id="edge25" class="edge"><title>35222&#45;&gt;32631</title>
<path fill="none" stroke="#000000" stroke-opacity="0.250980" d="M339.605,132.939C286.778,104.026 256.249,90.7786 116.221,33.6756"/>
<polygon fill="#000000" fill-opacity="0.250980" stroke="#000000" stroke-opacity="0.250980" points="114.776,36.8664 106.837,29.8502 117.419,30.3844 114.776,36.8664"/>
<text text-anchor="middle" x="265.795" y="89.4296" font-family="Helvetica,sans-Serif" font-size="14.00">NOMINATED</text>
</g>
<!-- 35222&#45;&gt;33724 -->
<g id="edge27" class="edge"><title>35222&#45;&gt;33724</title>
<path fill="none" stroke="#000000" stroke-opacity="0.250980" d="M427.015,138.016C731.805,29.5722 761.221,16.0584 870.796,-87.2338"/>
<polygon fill="#000000" fill-opacity="0.250980" stroke="#000000" stroke-opacity="0.250980" points="868.462,-89.8435 878.134,-94.1693 873.271,-84.7564 868.462,-89.8435"/>
<text text-anchor="middle" x="680.886" y="20.6579" font-family="Helvetica,sans-Serif" font-size="14.00">FOR_MOVIE</text>
</g>
<!-- 35262&#45;&gt;32058 -->
<g id="edge31" class="edge"><title>35262&#45;&gt;32058</title>
<path fill="none" stroke="#000000" stroke-opacity="0.250980" d="M237.438,276.476C444.421,493.359 467.455,517.471 546.588,599.674"/>
<polygon fill="#000000" fill-opacity="0.250980" stroke="#000000" stroke-opacity="0.250980" points="549.499,597.651 553.913,607.283 544.456,602.506 549.499,597.651"/>
<text text-anchor="middle" x="410.003" y="485.782" font-family="Helvetica,sans-Serif" font-size="14.00">IN_YEAR</text>
</g>
<!-- 35262&#45;&gt;32089 -->
<g id="edge32" class="edge"><title>35262&#45;&gt;32089</title>
<path fill="none" stroke="#000000" stroke-opacity="0.250980" d="M168.698,240.773C109.517,222.274 83.7913,203.412 -28.5364,109.562"/>
<polygon fill="#000000" fill-opacity="0.250980" stroke="#000000" stroke-opacity="0.250980" points="-30.9906,112.072 -36.4179,102.973 -26.5008,106.701 -30.9906,112.072"/>
<text text-anchor="middle" x="9.56819" y="192.176" font-family="Helvetica,sans-Serif" font-size="14.00">IN_CATEGORY</text>
</g>
<!-- 35262&#45;&gt;32631 -->
<g id="edge29" class="edge"><title>35262&#45;&gt;32631</title>
<path fill="none" stroke="#000000" stroke-opacity="0.250980" d="M207.713,232.372C183.746,172.224 172.928,156.196 82.4283,40.4656"/>
<polygon fill="#000000" fill-opacity="0.250980" stroke="#000000" stroke-opacity="0.250980" points="79.4676,42.3614 76.0627,32.3285 84.981,38.0482 79.4676,42.3614"/>
<text text-anchor="middle" x="107.29" y="124.079" font-family="Helvetica,sans-Serif" font-size="14.00">NOMINATED</text>
</g>
<!-- 35262&#45;&gt;33753 -->
<g id="edge30" class="edge"><title>35262&#45;&gt;33753</title>
<path fill="none" stroke="#000000" stroke-opacity="0.250980" d="M264.239,265.24C393.122,294.309 442.565,304.137 491.454,301.887"/>
<polygon fill="#000000" fill-opacity="0.250980" stroke="#000000" stroke-opacity="0.250980" points="491.377,298.385 501.576,301.252 491.815,305.371 491.377,298.385"/>
<text text-anchor="middle" x="366.623" y="292.509" font-family="Helvetica,sans-Serif" font-size="14.00">FOR_MOVIE</text>
</g>
<!-- 35362&#45;&gt;32063 -->
<g id="edge23" class="edge"><title>35362&#45;&gt;32063</title>
<path fill="none" stroke="#000000" stroke-opacity="0.250980" d="M80.2206,186.845C80.5037,276.149 79.7912,297.79 68.9739,330.189"/>
<polygon fill="#000000" fill-opacity="0.250980" stroke="#000000" stroke-opacity="0.250980" points="72.2586,331.399 65.6473,339.678 65.6528,329.083 72.2586,331.399"/>
<text text-anchor="middle" x="108.714" y="277.072" font-family="Helvetica,sans-Serif" font-size="14.00">IN_YEAR</text>
</g>
<!-- 35362&#45;&gt;32089 -->
<g id="edge24" class="edge"><title>35362&#45;&gt;32089</title>
<path fill="none" stroke="#000000" stroke-opacity="0.250980" d="M32.4492,155.8C12.2898,149.541 -2.32878,138.411 -32.2156,110.227"/>
<polygon fill="#000000" fill-opacity="0.250980" stroke="#000000" stroke-opacity="0.250980" points="-34.8662,112.536 -39.7087,103.113 -30.0466,107.46 -34.8662,112.536"/>
<text text-anchor="middle" x="-56.0123" y="144.519" font-family="Helvetica,sans-Serif" font-size="14.00">IN_CATEGORY</text>
</g>
<!-- 35362&#45;&gt;32631 -->
<g id="edge21" class="edge"><title>35362&#45;&gt;32631</title>
<path fill="none" stroke="#000000" stroke-opacity="0.250980" d="M84.7854,142.336C90.578,111.477 88.2325,97.7372 69.5815,42.0539"/>
<polygon fill="#000000" fill-opacity="0.250980" stroke="#000000" stroke-opacity="0.250980" points="66.1895,42.9482 66.3136,32.3541 72.8232,40.7133 66.1895,42.9482"/>
<text text-anchor="middle" x="103.705" y="96.6061" font-family="Helvetica,sans-Serif" font-size="14.00">NOMINATED</text>
</g>
<!-- 35362&#45;&gt;33824 -->
<g id="edge22" class="edge"><title>35362&#45;&gt;33824</title>
<path fill="none" stroke="#000000" stroke-opacity="0.250980" d="M82.9742,186.645C128.801,543.738 131.702,569.929 126.984,714.353"/>
<polygon fill="#000000" fill-opacity="0.250980" stroke="#000000" stroke-opacity="0.250980" points="130.477,714.623 126.647,724.501 123.481,714.391 130.477,714.623"/>
<text text-anchor="middle" x="82.7059" y="527.453" font-family="Helvetica,sans-Serif" font-size="14.00">FOR_MOVIE</text>
</g>
<!-- 35422&#45;&gt;32066 -->
<g id="edge15" class="edge"><title>35422&#45;&gt;32066</title>
<path fill="none" stroke="#000000" stroke-opacity="0.250980" d="M-44.9209,265.356C-26.8528,434.836 -23.7384,459.939 -6.28154,521.371"/>
<polygon fill="#000000" fill-opacity="0.250980" stroke="#000000" stroke-opacity="0.250980" points="-2.8714,520.565 -3.47577,531.143 -9.59958,522.497 -2.8714,520.565"/>
<text text-anchor="middle" x="-55.3261" y="431.088" font-family="Helvetica,sans-Serif" font-size="14.00">IN_YEAR</text>
</g>
<!-- 35422&#45;&gt;32089 -->
<g id="edge14" class="edge"><title>35422&#45;&gt;32089</title>
<path fill="none" stroke="#000000" stroke-opacity="0.250980" d="M-54.7043,221.028C-63.1588,193.981 -64.0866,178.357 -63.294,113.571"/>
<polygon fill="#000000" fill-opacity="0.250980" stroke="#000000" stroke-opacity="0.250980" points="-66.7889,113.151 -63.1591,103.197 -59.7895,113.242 -66.7889,113.151"/>
<text text-anchor="middle" x="-112.882" y="173.421" font-family="Helvetica,sans-Serif" font-size="14.00">IN_CATEGORY</text>
</g>
<!-- 35422&#45;&gt;32631 -->
<g id="edge13" class="edge"><title>35422&#45;&gt;32631</title>
<path fill="none" stroke="#000000" stroke-opacity="0.250980" d="M-27.3125,221.14C10.482,178.397 17.6854,159.528 50.0548,42.1341"/>
<polygon fill="#000000" fill-opacity="0.250980" stroke="#000000" stroke-opacity="0.250980" points="46.7121,41.0896 52.7411,32.3774 53.4609,42.9478 46.7121,41.0896"/>
<text text-anchor="middle" x="-17.2619" y="127.78" font-family="Helvetica,sans-Serif" font-size="14.00">NOMINATED</text>
</g>
<!-- 35422&#45;&gt;33867 -->
<g id="edge16" class="edge"><title>35422&#45;&gt;33867</title>
<path fill="none" stroke="#000000" stroke-opacity="0.250980" d="M-50.9686,265.409C-102.109,574.009 -106.489,600.403 -126.635,720.245"/>
<polygon fill="#000000" fill-opacity="0.250980" stroke="#000000" stroke-opacity="0.250980" points="-123.199,720.913 -128.308,730.194 -130.102,719.752 -123.199,720.913"/>
<text text-anchor="middle" x="-141.653" y="560.814" font-family="Helvetica,sans-Serif" font-size="14.00">FOR_MOVIE</text>
</g>
<!-- 35442&#45;&gt;32067 -->
<g id="edge19" class="edge"><title>35442&#45;&gt;32067</title>
<path fill="none" stroke="#000000" stroke-opacity="0.250980" d="M-255.775,-231.333C-455.853,-247.243 -483.705,-246.317 -574.207,-208.039"/>
<polygon fill="#000000" fill-opacity="0.250980" stroke="#000000" stroke-opacity="0.250980" points="-572.893,-204.794 -583.465,-204.09 -575.64,-211.233 -572.893,-204.794"/>
<text text-anchor="middle" x="-486.041" y="-242.806" font-family="Helvetica,sans-Serif" font-size="14.00">IN_YEAR</text>
</g>
<!-- 35442&#45;&gt;32089 -->
<g id="edge20" class="edge"><title>35442&#45;&gt;32089</title>
<path fill="none" stroke="#000000" stroke-opacity="0.250980" d="M-204.678,-205.361C-191.584,-117.004 -183.569,-100.791 -83.4418,49.8849"/>
<polygon fill="#000000" fill-opacity="0.250980" stroke="#000000" stroke-opacity="0.250980" points="-80.2853,48.311 -77.6636,58.5763 -86.1147,52.1865 -80.2853,48.311"/>
<text text-anchor="middle" x="-206.387" y="-53.0771" font-family="Helvetica,sans-Serif" font-size="14.00">IN_CATEGORY</text>
</g>
<!-- 35442&#45;&gt;32631 -->
<g id="edge17" class="edge"><title>35442&#45;&gt;32631</title>
<path fill="none" stroke="#000000" stroke-opacity="0.250980" d="M-168.616,-205.35C-108.392,-170.263 -85.8163,-147.658 31.7596,-19.2682"/>
<polygon fill="#000000" fill-opacity="0.250980" stroke="#000000" stroke-opacity="0.250980" points="34.3597,-21.6114 38.5309,-11.8722 29.1967,-16.8845 34.3597,-21.6114"/>
<text text-anchor="middle" x="-99.2605" y="-118.251" font-family="Helvetica,sans-Serif" font-size="14.00">NOMINATED</text>
</g>
<!-- 35442&#45;&gt;33882 -->
<g id="edge18" class="edge"><title>35442&#45;&gt;33882</title>
<path fill="none" stroke="#000000" stroke-opacity="0.250980" d="M-241.872,-249.519C-400.401,-352.246 -441.137,-377.783 -501.844,-403.401"/>
<polygon fill="#000000" fill-opacity="0.250980" stroke="#000000" stroke-opacity="0.250980" points="-503.477,-400.289 -511.369,-407.357 -500.792,-406.754 -503.477,-400.289"/>
<text text-anchor="middle" x="-449.772" y="-358.178" font-family="Helvetica,sans-Serif" font-size="14.00">FOR_MOVIE</text>
</g>
<!-- 35507&#45;&gt;32070 -->
<g id="edge10" class="edge"><title>35507&#45;&gt;32070</title>
<path fill="none" stroke="#000000" stroke-opacity="0.250980" d="M154.197,-284.382C395.685,-562.405 419.003,-588.555 525.746,-684.182"/>
<polygon fill="#000000" fill-opacity="0.250980" stroke="#000000" stroke-opacity="0.250980" points="523.454,-686.827 533.24,-690.887 528.121,-681.61 523.454,-686.827"/>
<text text-anchor="middle" x="360.547" y="-555.482" font-family="Helvetica,sans-Serif" font-size="14.00">IN_YEAR</text>
</g>
<!-- 35507&#45;&gt;32087 -->
<g id="edge11" class="edge"><title>35507&#45;&gt;32087</title>
<path fill="none" stroke="#000000" stroke-opacity="0.250980" d="M130.178,-284.154C112.507,-369.985 106.773,-391.748 83.8008,-420.746"/>
<polygon fill="#000000" fill-opacity="0.250980" stroke="#000000" stroke-opacity="0.250980" points="80.868,-418.801 77.2085,-428.744 86.2696,-423.253 80.868,-418.801"/>
<text text-anchor="middle" x="59.4362" y="-376.577" font-family="Helvetica,sans-Serif" font-size="14.00">IN_CATEGORY</text>
</g>
<!-- 35507&#45;&gt;32631 -->
<g id="edge9" class="edge"><title>35507&#45;&gt;32631</title>
<path fill="none" stroke="#000000" stroke-opacity="0.250980" d="M133.829,-239.825C130.861,-174.089 125.62,-157.007 71.5092,-21.4828"/>
<polygon fill="#000000" fill-opacity="0.250980" stroke="#000000" stroke-opacity="0.250980" points="74.6616,-19.9392 67.7013,-11.9513 68.1611,-22.5362 74.6616,-19.9392"/>
<text text-anchor="middle" x="151.961" y="-124.891" font-family="Helvetica,sans-Serif" font-size="14.00">NOMINATED</text>
</g>
<!-- 35507&#45;&gt;33912 -->
<g id="edge12" class="edge"><title>35507&#45;&gt;33912</title>
<path fill="none" stroke="#000000" stroke-opacity="0.250980" d="M144.154,-284.07C258.698,-552.715 269.347,-578.071 308.311,-684.034"/>
<polygon fill="#000000" fill-opacity="0.250980" stroke="#000000" stroke-opacity="0.250980" points="305.059,-685.333 311.793,-693.513 311.63,-682.919 305.059,-685.333"/>
<text text-anchor="middle" x="213.348" y="-547.86" font-family="Helvetica,sans-Serif" font-size="14.00">FOR_MOVIE</text>
</g>
<!-- 35582&#45;&gt;32074 -->
<g id="edge2" class="edge"><title>35582&#45;&gt;32074</title>
<path fill="none" stroke="#000000" stroke-opacity="0.250980" d="M409.155,-66.586C705.353,-230.828 735.721,-249.078 839.743,-340.767"/>
<polygon fill="#000000" fill-opacity="0.250980" stroke="#000000" stroke-opacity="0.250980" points="837.553,-343.502 847.365,-347.498 842.187,-338.255 837.553,-343.502"/>
<text text-anchor="middle" x="666.563" y="-233.685" font-family="Helvetica,sans-Serif" font-size="14.00">IN_YEAR</text>
</g>
<!-- 35582&#45;&gt;32089 -->
<g id="edge4" class="edge"><title>35582&#45;&gt;32089</title>
<path fill="none" stroke="#000000" stroke-opacity="0.250980" d="M325.943,-22.263C250.117,15.747 214.302,25.9648 34.9977,61.585"/>
<polygon fill="#000000" fill-opacity="0.250980" stroke="#000000" stroke-opacity="0.250980" points="35.4438,65.0647 24.9539,63.5773 34.0818,58.1984 35.4438,65.0647"/>
<text text-anchor="middle" x="227.82" y="28.467" font-family="Helvetica,sans-Serif" font-size="14.00">IN_CATEGORY</text>
</g>
<!-- 35582&#45;&gt;32631 -->
<g id="edge1" class="edge"><title>35582&#45;&gt;32631</title>
<path fill="none" stroke="#000000" stroke-opacity="0.250980" d="M321.026,-34.6756C273.786,-25.3353 240.692,-19.6938 116.442,0.792721"/>
<polygon fill="#000000" fill-opacity="0.250980" stroke="#000000" stroke-opacity="0.250980" points="116.979,4.25124 106.543,2.42443 115.841,-2.65555 116.979,4.25124"/>
<text text-anchor="middle" x="172.429" y="-18.1828" font-family="Helvetica,sans-Serif" font-size="14.00">NOMINATED</text>
</g>
<!-- 35582&#45;&gt;33977 -->
<g id="edge3" class="edge"><title>35582&#45;&gt;33977</title>
<path fill="none" stroke="#000000" stroke-opacity="0.250980" d="M416.893,-32.7232C702.136,36.5847 744.101,48.1991 846.634,101.249"/>
<polygon fill="#000000" fill-opacity="0.250980" stroke="#000000" stroke-opacity="0.250980" points="848.504,98.2762 855.761,105.995 845.274,104.487 848.504,98.2762"/>
<text text-anchor="middle" x="741.51" y="37.5605" font-family="Helvetica,sans-Serif" font-size="14.00">FOR_MOVIE</text>
</g>
<!-- 35622&#45;&gt;32076 -->
<g id="edge7" class="edge"><title>35622&#45;&gt;32076</title>
<path fill="none" stroke="#000000" stroke-opacity="0.250980" d="M23.4409,-144.297C-19.8197,-519.463 -23.2734,-546.405 -58.3927,-692.596"/>
<polygon fill="#000000" fill-opacity="0.250980" stroke="#000000" stroke-opacity="0.250980" points="-61.8157,-691.861 -60.7525,-702.402 -55.01,-693.499 -61.8157,-691.861"/>
<text text-anchor="middle" x="-50.4842" y="-507.114" font-family="Helvetica,sans-Serif" font-size="14.00">IN_YEAR</text>
</g>
<!-- 35622&#45;&gt;32089 -->
<g id="edge6" class="edge"><title>35622&#45;&gt;32089</title>
<path fill="none" stroke="#000000" stroke-opacity="0.250980" d="M5.4558,-99.8105C-26.1201,-64.3548 -32.5481,-46.3514 -55.2391,48.7838"/>
<polygon fill="#000000" fill-opacity="0.250980" stroke="#000000" stroke-opacity="0.250980" points="-51.8424,49.6291 -57.5615,58.5478 -58.6524,48.0092 -51.8424,49.6291"/>
<text text-anchor="middle" x="-61.2679" y="-12.7319" font-family="Helvetica,sans-Serif" font-size="14.00">IN_CATEGORY</text>
</g>
<!-- 35622&#45;&gt;32631 -->
<g id="edge5" class="edge"><title>35622&#45;&gt;32631</title>
<path fill="none" stroke="#000000" stroke-opacity="0.250980" d="M42.0039,-99.7476C55.9231,-78.628 58.3594,-65.389 58.7467,-21.9658"/>
<polygon fill="#000000" fill-opacity="0.250980" stroke="#000000" stroke-opacity="0.250980" points="62.2469,-21.924 58.8026,-11.9047 55.247,-21.8851 62.2469,-21.924"/>
<text text-anchor="middle" x="15.854" y="-59.4298" font-family="Helvetica,sans-Serif" font-size="14.00">NOMINATED</text>
</g>
<!-- 35622&#45;&gt;34003 -->
<g id="edge8" class="edge"><title>35622&#45;&gt;34003</title>
<path fill="none" stroke="#000000" stroke-opacity="0.250980" d="M41.3278,-144.379C164.619,-323.848 182.577,-349.202 237.764,-409.002"/>
<polygon fill="#000000" fill-opacity="0.250980" stroke="#000000" stroke-opacity="0.250980" points="235.325,-411.52 244.688,-416.478 240.461,-406.763 235.325,-411.52"/>
<text text-anchor="middle" x="123.86" y="-324.37" font-family="Helvetica,sans-Serif" font-size="14.00">FOR_MOVIE</text>
</g>
<!-- 35643&#45;&gt;32077 -->
<g id="edge68" class="edge"><title>35643&#45;&gt;32077</title>
<path fill="none" stroke="#000000" stroke-opacity="0.250980" d="M227.628,87.1696C349.183,254.32 362.052,274.444 383.024,362.686"/>
<polygon fill="#000000" fill-opacity="0.250980" stroke="#000000" stroke-opacity="0.250980" points="386.476,362.078 385.354,372.614 379.661,363.678 386.476,362.078"/>
<text text-anchor="middle" x="313.091" y="251.722" font-family="Helvetica,sans-Serif" font-size="14.00">IN_YEAR</text>
</g>
<!-- 35643&#45;&gt;32089 -->
<g id="edge67" class="edge"><title>35643&#45;&gt;32089</title>
<path fill="none" stroke="#000000" stroke-opacity="0.250980" d="M163.603,84.5022C126.216,98.0626 100.265,99.909 35.3238,92.9761"/>
<polygon fill="#000000" fill-opacity="0.250980" stroke="#000000" stroke-opacity="0.250980" points="34.5639,96.4137 25.0074,91.8394 35.3306,89.4558 34.5639,96.4137"/>
<text text-anchor="middle" x="144.38" y="108.117" font-family="Helvetica,sans-Serif" font-size="14.00">IN_CATEGORY</text>
</g>
<!-- 35643&#45;&gt;32631 -->
<g id="edge65" class="edge"><title>35643&#45;&gt;32631</title>
<path fill="none" stroke="#000000" stroke-opacity="0.250980" d="M163.434,43.1352C152.061,38.9138 138.074,34.3753 116.617,27.7819"/>
<polygon fill="#000000" fill-opacity="0.250980" stroke="#000000" stroke-opacity="0.250980" points="115.489,31.0969 106.95,24.8253 117.536,24.4029 115.489,31.0969"/>
<text text-anchor="middle" x="94.0138" y="44.8699" font-family="Helvetica,sans-Serif" font-size="14.00">NOMINATED</text>
</g>
<!-- 35643&#45;&gt;34023 -->
<g id="edge66" class="edge"><title>35643&#45;&gt;34023</title>
<path fill="none" stroke="#000000" stroke-opacity="0.250980" d="M259.149,64.0969C428.704,61.2404 468.309,59.9285 529.567,50.7687"/>
<polygon fill="#000000" fill-opacity="0.250980" stroke="#000000" stroke-opacity="0.250980" points="529.192,47.2852 539.607,49.2298 530.253,54.2044 529.192,47.2852"/>
<text text-anchor="middle" x="393.745" y="56.9964" font-family="Helvetica,sans-Serif" font-size="14.00">FOR_MOVIE</text>
</g>
<!-- 35682&#45;&gt;32079 -->
<g id="edge75" class="edge"><title>35682&#45;&gt;32079</title>
<path fill="none" stroke="#000000" stroke-opacity="0.250980" d="M-192.386,251.672C-184.049,348.342 -180.756,369.575 -155.608,405.719"/>
<polygon fill="#000000" fill-opacity="0.250980" stroke="#000000" stroke-opacity="0.250980" points="-152.498,404.049 -149.515,414.215 -158.187,408.128 -152.498,404.049"/>
<text text-anchor="middle" x="-210.254" y="348.601" font-family="Helvetica,sans-Serif" font-size="14.00">IN_YEAR</text>
</g>
<!-- 35682&#45;&gt;32089 -->
<g id="edge74" class="edge"><title>35682&#45;&gt;32089</title>
<path fill="none" stroke="#000000" stroke-opacity="0.250980" d="M-173.96,207.381C-153.51,184.951 -139.858,169.396 -88.9861,110.915"/>
<polygon fill="#000000" fill-opacity="0.250980" stroke="#000000" stroke-opacity="0.250980" points="-91.4548,108.42 -82.2511,103.172 -86.1732,113.014 -91.4548,108.42"/>
<text text-anchor="middle" x="-177.398" y="152.735" font-family="Helvetica,sans-Serif" font-size="14.00">IN_CATEGORY</text>
</g>
<!-- 35682&#45;&gt;32631 -->
<g id="edge73" class="edge"><title>35682&#45;&gt;32631</title>
<path fill="none" stroke="#000000" stroke-opacity="0.250980" d="M-153.775,207.494C-99.5292,176.673 -76.7133,154.381 31.211,39.65"/>
<polygon fill="#000000" fill-opacity="0.250980" stroke="#000000" stroke-opacity="0.250980" points="28.7026,37.2083 38.1028,32.3211 33.802,42.0037 28.7026,37.2083"/>
<text text-anchor="middle" x="-92.7589" y="123.117" font-family="Helvetica,sans-Serif" font-size="14.00">NOMINATED</text>
</g>
<!-- 35682&#45;&gt;34049 -->
<g id="edge76" class="edge"><title>35682&#45;&gt;34049</title>
<path fill="none" stroke="#000000" stroke-opacity="0.250980" d="M-231.449,251.707C-369.439,333.877 -406.463,354.976 -460.307,374.644"/>
<polygon fill="#000000" fill-opacity="0.250980" stroke="#000000" stroke-opacity="0.250980" points="-459.249,377.982 -469.844,378.054 -461.607,371.391 -459.249,377.982"/>
<text text-anchor="middle" x="-418.666" y="333.817" font-family="Helvetica,sans-Serif" font-size="14.00">FOR_MOVIE</text>
</g>
<!-- 35723&#45;&gt;32081 -->
<g id="edge71" class="edge"><title>35723&#45;&gt;32081</title>
<path fill="none" stroke="#000000" stroke-opacity="0.250980" d="M-359.161,-65.5075C-705.946,-235.896 -738.044,-252.637 -868.117,-340.953"/>
<polygon fill="#000000" fill-opacity="0.250980" stroke="#000000" stroke-opacity="0.250980" points="-870.117,-338.08 -876.42,-346.596 -866.182,-343.869 -870.117,-338.08"/>
<text text-anchor="middle" x="-724.863" y="-236.809" font-family="Helvetica,sans-Serif" font-size="14.00">IN_YEAR</text>
</g>
<!-- 35723&#45;&gt;32089 -->
<g id="edge70" class="edge"><title>35723&#45;&gt;32089</title>
<path fill="none" stroke="#000000" stroke-opacity="0.250980" d="M-289.989,-21.4368C-250.659,13.2976 -229.629,24.3691 -138.517,55.4743"/>
<polygon fill="#000000" fill-opacity="0.250980" stroke="#000000" stroke-opacity="0.250980" points="-137.219,52.2188 -128.878,58.7518 -139.472,58.8462 -137.219,52.2188"/>
<text text-anchor="middle" x="-262.62" y="25.1351" font-family="Helvetica,sans-Serif" font-size="14.00">IN_CATEGORY</text>
</g>
<!-- 35723&#45;&gt;32631 -->
<g id="edge69" class="edge"><title>35723&#45;&gt;32631</title>
<path fill="none" stroke="#000000" stroke-opacity="0.250980" d="M-266.467,-39.9302C-200.935,-34.691 -165.828,-29.1248 0.935689,0.124126"/>
<polygon fill="#000000" fill-opacity="0.250980" stroke="#000000" stroke-opacity="0.250980" points="1.81501,-3.27514 11.0597,1.90045 0.605238,3.61954 1.81501,-3.27514"/>
<text text-anchor="middle" x="-168.48" y="-24.7383" font-family="Helvetica,sans-Serif" font-size="14.00">NOMINATED</text>
</g>
<!-- 35723&#45;&gt;34072 -->
<g id="edge72" class="edge"><title>35723&#45;&gt;34072</title>
<path fill="none" stroke="#000000" stroke-opacity="0.250980" d="M-356.063,-21.3781C-509.587,60.0639 -532.167,74.9862 -581.444,139.334"/>
<polygon fill="#000000" fill-opacity="0.250980" stroke="#000000" stroke-opacity="0.250980" points="-578.761,141.588 -587.596,147.434 -584.335,137.354 -578.761,141.588"/>
<text text-anchor="middle" x="-549.079" y="62.5923" font-family="Helvetica,sans-Serif" font-size="14.00">FOR_MOVIE</text>
</g>
<!-- 35748&#45;&gt;32082 -->
<g id="edge62" class="edge"><title>35748&#45;&gt;32082</title>
<path fill="none" stroke="#000000" stroke-opacity="0.250980" d="M-173.076,-465.358C-583.586,-681.307 -611.252,-692.276 -838.27,-699.72"/>
<polygon fill="#000000" fill-opacity="0.250980" stroke="#000000" stroke-opacity="0.250980" points="-838.647,-696.23 -848.529,-700.05 -838.421,-703.226 -838.647,-696.23"/>
<text text-anchor="middle" x="-604.44" y="-663.529" font-family="Helvetica,sans-Serif" font-size="14.00">IN_YEAR</text>
</g>
<!-- 35748&#45;&gt;32087 -->
<g id="edge63" class="edge"><title>35748&#45;&gt;32087</title>
<path fill="none" stroke="#000000" stroke-opacity="0.250980" d="M-83.2907,-464.052C-58.9909,-473.678 -42.8339,-477.086 -23.2408,-474.761"/>
<polygon fill="#000000" fill-opacity="0.250980" stroke="#000000" stroke-opacity="0.250980" points="-22.6128,-478.205 -13.2956,-473.161 -23.7246,-471.294 -22.6128,-478.205"/>
<text text-anchor="middle" x="-98.8148" y="-477.074" font-family="Helvetica,sans-Serif" font-size="14.00">IN_CATEGORY</text>
</g>
<!-- 35748&#45;&gt;32631 -->
<g id="edge61" class="edge"><title>35748&#45;&gt;32631</title>
<path fill="none" stroke="#000000" stroke-opacity="0.250980" d="M-116.631,-421.094C-49.2095,-316.913 -41.1681,-295.989 48.3297,-21.8175"/>
<polygon fill="#000000" fill-opacity="0.250980" stroke="#000000" stroke-opacity="0.250980" points="51.7724,-22.5494 51.548,-11.957 45.1179,-20.3775 51.7724,-22.5494"/>
<text text-anchor="middle" x="-59.7687" y="-224.171" font-family="Helvetica,sans-Serif" font-size="14.00">NOMINATED</text>
</g>
<!-- 35748&#45;&gt;34085 -->
<g id="edge64" class="edge"><title>35748&#45;&gt;34085</title>
<path fill="none" stroke="#000000" stroke-opacity="0.250980" d="M-154.559,-465.505C-331.477,-632.824 -365.733,-663.311 -453.092,-699.157"/>
<polygon fill="#000000" fill-opacity="0.250980" stroke="#000000" stroke-opacity="0.250980" points="-454.615,-695.997 -462.575,-702.989 -451.992,-702.487 -454.615,-695.997"/>
<text text-anchor="middle" x="-378.639" y="-634.435" font-family="Helvetica,sans-Serif" font-size="14.00">FOR_MOVIE</text>
</g>
<!-- 78800&#45;&gt;32089 -->
<g id="edge78" class="edge"><title>78800&#45;&gt;32089</title>
<path fill="none" stroke="#000000" stroke-opacity="0.250980" d="M-157.623,81.2741C-157.489,81.2944 -157.355,81.3145 -157.221,81.3344"/>
<polygon fill="#000000" fill-opacity="0.250980" stroke="#000000" stroke-opacity="0.250980" points="-160.438,77.4189 -150.931,82.0965 -161.28,84.3681 -160.438,77.4189"/>
<text text-anchor="middle" x="-206.808" y="92.5269" font-family="Helvetica,sans-Serif" font-size="14.00">IN_CATEGORY</text>
</g>
<!-- 78800&#45;&gt;32631 -->
<g id="edge77" class="edge"><title>78800&#45;&gt;32631</title>
<path fill="none" stroke="#000000" stroke-opacity="0.250980" d="M-157.717,59.2297C-120.415,54.5712 -91.1051,47.9216 1.20953,24.778"/>
<polygon fill="#000000" fill-opacity="0.250980" stroke="#000000" stroke-opacity="0.250980" points="0.395363,21.3738 10.9465,22.3345 2.09919,28.1633 0.395363,21.3738"/>
<text text-anchor="middle" x="-114.33" y="40.1876" font-family="Helvetica,sans-Serif" font-size="14.00">NOMINATED</text>
</g>
<!-- 78800&#45;&gt;78780 -->
<g id="edge79" class="edge"><title>78800&#45;&gt;78780</title>
<path fill="none" stroke="#000000" stroke-opacity="0.250980" d="M-253.191,55.4137C-658.598,-19.6529 -691.711,-26.8169 -852.236,-84.8511"/>
<polygon fill="#000000" fill-opacity="0.250980" stroke="#000000" stroke-opacity="0.250980" points="-853.773,-81.6854 -861.984,-88.3807 -851.39,-88.2672 -853.773,-81.6854"/>
<text text-anchor="middle" x="-674.501" y="-23.9063" font-family="Helvetica,sans-Serif" font-size="14.00">IN_YEAR</text>
</g>
<!-- 78800&#45;&gt;78923 -->
<g id="edge80" class="edge"><title>78800&#45;&gt;78923</title>
<path fill="none" stroke="#000000" stroke-opacity="0.250980" d="M-253.216,70.0102C-623.849,114.584 -692.981,122.654 -822.529,132.091"/>
<polygon fill="#000000" fill-opacity="0.250980" stroke="#000000" stroke-opacity="0.250980" points="-822.558,135.602 -832.784,132.832 -823.062,128.62 -822.558,135.602"/>
<text text-anchor="middle" x="-669.509" y="111.427" font-family="Helvetica,sans-Serif" font-size="14.00">FOR_MOVIE</text>
</g>
<!-- 32046 -->
<g id="node1" class="node"><title>32046</title>
<path fill="#bdc3c7" stroke="black" d="M-341.496,-410.318C-341.496,-410.318 -311.496,-410.318 -311.496,-410.318 -305.496,-410.318 -299.496,-416.318 -299.496,-422.318 -299.496,-422.318 -299.496,-442.318 -299.496,-442.318 -299.496,-448.318 -305.496,-454.318 -311.496,-454.318 -311.496,-454.318 -341.496,-454.318 -341.496,-454.318 -347.496,-454.318 -353.496,-448.318 -353.496,-442.318 -353.496,-442.318 -353.496,-422.318 -353.496,-422.318 -353.496,-416.318 -347.496,-410.318 -341.496,-410.318"/>
<text text-anchor="middle" x="-326.496" y="-439.118" font-family="Helvetica,sans-Serif" font-size="14.00" fill="white">:Year</text>
<polyline fill="none" stroke="black" points="-353.496,-432.318 -299.496,-432.318 "/>
<text text-anchor="middle" x="-326.496" y="-417.118" font-family="Helvetica,sans-Serif" font-size="14.00" fill="white">1978</text>
</g>
<!-- 32047 -->
<g id="node2" class="node"><title>32047</title>
<path fill="#bdc3c7" stroke="black" d="M876.387,-672.212C876.387,-672.212 906.387,-672.212 906.387,-672.212 912.387,-672.212 918.387,-678.212 918.387,-684.212 918.387,-684.212 918.387,-704.212 918.387,-704.212 918.387,-710.212 912.387,-716.212 906.387,-716.212 906.387,-716.212 876.387,-716.212 876.387,-716.212 870.387,-716.212 864.387,-710.212 864.387,-704.212 864.387,-704.212 864.387,-684.212 864.387,-684.212 864.387,-678.212 870.387,-672.212 876.387,-672.212"/>
<text text-anchor="middle" x="891.387" y="-701.012" font-family="Helvetica,sans-Serif" font-size="14.00" fill="white">:Year</text>
<polyline fill="none" stroke="black" points="864.387,-694.212 918.387,-694.212 "/>
<text text-anchor="middle" x="891.387" y="-679.012" font-family="Helvetica,sans-Serif" font-size="14.00" fill="white">1979</text>
</g>
<!-- 32049 -->
<g id="node3" class="node"><title>32049</title>
<path fill="#bdc3c7" stroke="black" d="M-536.439,11.4823C-536.439,11.4823 -506.439,11.4823 -506.439,11.4823 -500.439,11.4823 -494.439,5.48229 -494.439,-0.517709 -494.439,-0.517709 -494.439,-20.5177 -494.439,-20.5177 -494.439,-26.5177 -500.439,-32.5177 -506.439,-32.5177 -506.439,-32.5177 -536.439,-32.5177 -536.439,-32.5177 -542.439,-32.5177 -548.439,-26.5177 -548.439,-20.5177 -548.439,-20.5177 -548.439,-0.517709 -548.439,-0.517709 -548.439,5.48229 -542.439,11.4823 -536.439,11.4823"/>
<text text-anchor="middle" x="-521.439" y="-17.3177" font-family="Helvetica,sans-Serif" font-size="14.00" fill="white">:Year</text>
<polyline fill="none" stroke="black" points="-548.439,-10.5177 -494.439,-10.5177 "/>
<text text-anchor="middle" x="-521.439" y="4.68229" font-family="Helvetica,sans-Serif" font-size="14.00" fill="white">1981</text>
</g>
<!-- 32050 -->
<g id="node4" class="node"><title>32050</title>
<path fill="#bdc3c7" stroke="black" d="M504.527,-393.139C504.527,-393.139 534.527,-393.139 534.527,-393.139 540.527,-393.139 546.527,-399.139 546.527,-405.139 546.527,-405.139 546.527,-425.139 546.527,-425.139 546.527,-431.139 540.527,-437.139 534.527,-437.139 534.527,-437.139 504.527,-437.139 504.527,-437.139 498.527,-437.139 492.527,-431.139 492.527,-425.139 492.527,-425.139 492.527,-405.139 492.527,-405.139 492.527,-399.139 498.527,-393.139 504.527,-393.139"/>
<text text-anchor="middle" x="519.527" y="-421.939" font-family="Helvetica,sans-Serif" font-size="14.00" fill="white">:Year</text>
<polyline fill="none" stroke="black" points="492.527,-415.139 546.527,-415.139 "/>
<text text-anchor="middle" x="519.527" y="-399.939" font-family="Helvetica,sans-Serif" font-size="14.00" fill="white">1982</text>
</g>
<!-- 32051 -->
<g id="node5" class="node"><title>32051</title>
<path fill="#bdc3c7" stroke="black" d="M354.307,755.138C354.307,755.138 384.307,755.138 384.307,755.138 390.307,755.138 396.307,749.138 396.307,743.138 396.307,743.138 396.307,723.138 396.307,723.138 396.307,717.138 390.307,711.138 384.307,711.138 384.307,711.138 354.307,711.138 354.307,711.138 348.307,711.138 342.307,717.138 342.307,723.138 342.307,723.138 342.307,743.138 342.307,743.138 342.307,749.138 348.307,755.138 354.307,755.138"/>
<text text-anchor="middle" x="369.307" y="726.338" font-family="Helvetica,sans-Serif" font-size="14.00" fill="white">:Year</text>
<polyline fill="none" stroke="black" points="342.307,733.138 396.307,733.138 "/>
<text text-anchor="middle" x="369.307" y="748.338" font-family="Helvetica,sans-Serif" font-size="14.00" fill="white">1983</text>
</g>
<!-- 32053 -->
<g id="node6" class="node"><title>32053</title>
<path fill="#bdc3c7" stroke="black" d="M-878.439,406.096C-878.439,406.096 -848.439,406.096 -848.439,406.096 -842.439,406.096 -836.439,400.096 -836.439,394.096 -836.439,394.096 -836.439,374.096 -836.439,374.096 -836.439,368.096 -842.439,362.096 -848.439,362.096 -848.439,362.096 -878.439,362.096 -878.439,362.096 -884.439,362.096 -890.439,368.096 -890.439,374.096 -890.439,374.096 -890.439,394.096 -890.439,394.096 -890.439,400.096 -884.439,406.096 -878.439,406.096"/>
<text text-anchor="middle" x="-863.439" y="377.296" font-family="Helvetica,sans-Serif" font-size="14.00" fill="white">:Year</text>
<polyline fill="none" stroke="black" points="-890.439,384.096 -836.439,384.096 "/>
<text text-anchor="middle" x="-863.439" y="399.296" font-family="Helvetica,sans-Serif" font-size="14.00" fill="white">1985</text>
</g>
<!-- 32055 -->
<g id="node7" class="node"><title>32055</title>
<path fill="#bdc3c7" stroke="black" d="M-579.245,724.505C-579.245,724.505 -549.245,724.505 -549.245,724.505 -543.245,724.505 -537.245,718.505 -537.245,712.505 -537.245,712.505 -537.245,692.505 -537.245,692.505 -537.245,686.505 -543.245,680.505 -549.245,680.505 -549.245,680.505 -579.245,680.505 -579.245,680.505 -585.245,680.505 -591.245,686.505 -591.245,692.505 -591.245,692.505 -591.245,712.505 -591.245,712.505 -591.245,718.505 -585.245,724.505 -579.245,724.505"/>
<text text-anchor="middle" x="-564.245" y="695.705" font-family="Helvetica,sans-Serif" font-size="14.00" fill="white">:Year</text>
<polyline fill="none" stroke="black" points="-591.245,702.505 -537.245,702.505 "/>
<text text-anchor="middle" x="-564.245" y="717.705" font-family="Helvetica,sans-Serif" font-size="14.00" fill="white">1987</text>
</g>
<!-- 32056 -->
<g id="node8" class="node"><title>32056</title>
<path fill="#bdc3c7" stroke="black" d="M875.6,406.622C875.6,406.622 905.6,406.622 905.6,406.622 911.6,406.622 917.6,400.622 917.6,394.622 917.6,394.622 917.6,374.622 917.6,374.622 917.6,368.622 911.6,362.622 905.6,362.622 905.6,362.622 875.6,362.622 875.6,362.622 869.6,362.622 863.6,368.622 863.6,374.622 863.6,374.622 863.6,394.622 863.6,394.622 863.6,400.622 869.6,406.622 875.6,406.622"/>
<text text-anchor="middle" x="890.6" y="377.822" font-family="Helvetica,sans-Serif" font-size="14.00" fill="white">:Year</text>
<polyline fill="none" stroke="black" points="863.6,384.622 917.6,384.622 "/>
<text text-anchor="middle" x="890.6" y="399.822" font-family="Helvetica,sans-Serif" font-size="14.00" fill="white">1988</text>
</g>
<!-- 32058 -->
<g id="node9" class="node"><title>32058</title>
<path fill="#bdc3c7" stroke="black" d="M560.179,651.369C560.179,651.369 590.179,651.369 590.179,651.369 596.179,651.369 602.179,645.369 602.179,639.369 602.179,639.369 602.179,619.369 602.179,619.369 602.179,613.369 596.179,607.369 590.179,607.369 590.179,607.369 560.179,607.369 560.179,607.369 554.179,607.369 548.179,613.369 548.179,619.369 548.179,619.369 548.179,639.369 548.179,639.369 548.179,645.369 554.179,651.369 560.179,651.369"/>
<text text-anchor="middle" x="575.179" y="622.569" font-family="Helvetica,sans-Serif" font-size="14.00" fill="white">:Year</text>
<polyline fill="none" stroke="black" points="548.179,629.369 602.179,629.369 "/>
<text text-anchor="middle" x="575.179" y="644.569" font-family="Helvetica,sans-Serif" font-size="14.00" fill="white">1990</text>
</g>
<!-- 32063 -->
<g id="node10" class="node"><title>32063</title>
<path fill="#bdc3c7" stroke="black" d="M42.2189,383.895C42.2189,383.895 72.2189,383.895 72.2189,383.895 78.2189,383.895 84.2189,377.895 84.2189,371.895 84.2189,371.895 84.2189,351.895 84.2189,351.895 84.2189,345.895 78.2189,339.895 72.2189,339.895 72.2189,339.895 42.2189,339.895 42.2189,339.895 36.2189,339.895 30.2189,345.895 30.2189,351.895 30.2189,351.895 30.2189,371.895 30.2189,371.895 30.2189,377.895 36.2189,383.895 42.2189,383.895"/>
<text text-anchor="middle" x="57.2189" y="355.095" font-family="Helvetica,sans-Serif" font-size="14.00" fill="white">:Year</text>
<polyline fill="none" stroke="black" points="30.2189,361.895 84.2189,361.895 "/>
<text text-anchor="middle" x="57.2189" y="377.095" font-family="Helvetica,sans-Serif" font-size="14.00" fill="white">1995</text>
</g>
<!-- 32066 -->
<g id="node11" class="node"><title>32066</title>
<path fill="#bdc3c7" stroke="black" d="M-12.0135,575.254C-12.0135,575.254 17.9865,575.254 17.9865,575.254 23.9865,575.254 29.9865,569.254 29.9865,563.254 29.9865,563.254 29.9865,543.254 29.9865,543.254 29.9865,537.254 23.9865,531.254 17.9865,531.254 17.9865,531.254 -12.0135,531.254 -12.0135,531.254 -18.0135,531.254 -24.0135,537.254 -24.0135,543.254 -24.0135,543.254 -24.0135,563.254 -24.0135,563.254 -24.0135,569.254 -18.0135,575.254 -12.0135,575.254"/>
<text text-anchor="middle" x="2.98647" y="546.454" font-family="Helvetica,sans-Serif" font-size="14.00" fill="white">:Year</text>
<polyline fill="none" stroke="black" points="-24.0135,553.254 29.9865,553.254 "/>
<text text-anchor="middle" x="2.98647" y="568.454" font-family="Helvetica,sans-Serif" font-size="14.00" fill="white">1998</text>
</g>
<!-- 32067 -->
<g id="node12" class="node"><title>32067</title>
<path fill="#bdc3c7" stroke="black" d="M-625.573,-170.316C-625.573,-170.316 -595.573,-170.316 -595.573,-170.316 -589.573,-170.316 -583.573,-176.316 -583.573,-182.316 -583.573,-182.316 -583.573,-202.316 -583.573,-202.316 -583.573,-208.316 -589.573,-214.316 -595.573,-214.316 -595.573,-214.316 -625.573,-214.316 -625.573,-214.316 -631.573,-214.316 -637.573,-208.316 -637.573,-202.316 -637.573,-202.316 -637.573,-182.316 -637.573,-182.316 -637.573,-176.316 -631.573,-170.316 -625.573,-170.316"/>
<text text-anchor="middle" x="-610.573" y="-199.116" font-family="Helvetica,sans-Serif" font-size="14.00" fill="white">:Year</text>
<polyline fill="none" stroke="black" points="-637.573,-192.316 -583.573,-192.316 "/>
<text text-anchor="middle" x="-610.573" y="-177.116" font-family="Helvetica,sans-Serif" font-size="14.00" fill="white">1999</text>
</g>
<!-- 32070 -->
<g id="node13" class="node"><title>32070</title>
<path fill="#bdc3c7" stroke="black" d="M543.104,-691.074C543.104,-691.074 573.104,-691.074 573.104,-691.074 579.104,-691.074 585.104,-697.074 585.104,-703.074 585.104,-703.074 585.104,-723.074 585.104,-723.074 585.104,-729.074 579.104,-735.074 573.104,-735.074 573.104,-735.074 543.104,-735.074 543.104,-735.074 537.104,-735.074 531.104,-729.074 531.104,-723.074 531.104,-723.074 531.104,-703.074 531.104,-703.074 531.104,-697.074 537.104,-691.074 543.104,-691.074"/>
<text text-anchor="middle" x="558.104" y="-719.874" font-family="Helvetica,sans-Serif" font-size="14.00" fill="white">:Year</text>
<polyline fill="none" stroke="black" points="531.104,-713.074 585.104,-713.074 "/>
<text text-anchor="middle" x="558.104" y="-697.874" font-family="Helvetica,sans-Serif" font-size="14.00" fill="white">2002</text>
</g>
<!-- 32074 -->
<g id="node14" class="node"><title>32074</title>
<path fill="#bdc3c7" stroke="black" d="M857.343,-347.668C857.343,-347.668 887.343,-347.668 887.343,-347.668 893.343,-347.668 899.343,-353.668 899.343,-359.668 899.343,-359.668 899.343,-379.668 899.343,-379.668 899.343,-385.668 893.343,-391.668 887.343,-391.668 887.343,-391.668 857.343,-391.668 857.343,-391.668 851.343,-391.668 845.343,-385.668 845.343,-379.668 845.343,-379.668 845.343,-359.668 845.343,-359.668 845.343,-353.668 851.343,-347.668 857.343,-347.668"/>
<text text-anchor="middle" x="872.343" y="-376.468" font-family="Helvetica,sans-Serif" font-size="14.00" fill="white">:Year</text>
<polyline fill="none" stroke="black" points="845.343,-369.668 899.343,-369.668 "/>
<text text-anchor="middle" x="872.343" y="-354.468" font-family="Helvetica,sans-Serif" font-size="14.00" fill="white">2006</text>
</g>
<!-- 32076 -->
<g id="node15" class="node"><title>32076</title>
<path fill="#bdc3c7" stroke="black" d="M-81.1298,-702.68C-81.1298,-702.68 -51.1298,-702.68 -51.1298,-702.68 -45.1298,-702.68 -39.1298,-708.68 -39.1298,-714.68 -39.1298,-714.68 -39.1298,-734.68 -39.1298,-734.68 -39.1298,-740.68 -45.1298,-746.68 -51.1298,-746.68 -51.1298,-746.68 -81.1298,-746.68 -81.1298,-746.68 -87.1298,-746.68 -93.1298,-740.68 -93.1298,-734.68 -93.1298,-734.68 -93.1298,-714.68 -93.1298,-714.68 -93.1298,-708.68 -87.1298,-702.68 -81.1298,-702.68"/>
<text text-anchor="middle" x="-66.1298" y="-731.48" font-family="Helvetica,sans-Serif" font-size="14.00" fill="white">:Year</text>
<polyline fill="none" stroke="black" points="-93.1298,-724.68 -39.1298,-724.68 "/>
<text text-anchor="middle" x="-66.1298" y="-709.48" font-family="Helvetica,sans-Serif" font-size="14.00" fill="white">2008</text>
</g>
<!-- 32077 -->
<g id="node16" class="node"><title>32077</title>
<path fill="#bdc3c7" stroke="black" d="M375.405,416.615C375.405,416.615 405.405,416.615 405.405,416.615 411.405,416.615 417.405,410.615 417.405,404.615 417.405,404.615 417.405,384.615 417.405,384.615 417.405,378.615 411.405,372.615 405.405,372.615 405.405,372.615 375.405,372.615 375.405,372.615 369.405,372.615 363.405,378.615 363.405,384.615 363.405,384.615 363.405,404.615 363.405,404.615 363.405,410.615 369.405,416.615 375.405,416.615"/>
<text text-anchor="middle" x="390.405" y="387.815" font-family="Helvetica,sans-Serif" font-size="14.00" fill="white">:Year</text>
<polyline fill="none" stroke="black" points="363.405,394.615 417.405,394.615 "/>
<text text-anchor="middle" x="390.405" y="409.815" font-family="Helvetica,sans-Serif" font-size="14.00" fill="white">2009</text>
</g>
<!-- 32079 -->
<g id="node17" class="node"><title>32079</title>
<path fill="#bdc3c7" stroke="black" d="M-147.682,458.443C-147.682,458.443 -117.682,458.443 -117.682,458.443 -111.682,458.443 -105.682,452.443 -105.682,446.443 -105.682,446.443 -105.682,426.443 -105.682,426.443 -105.682,420.443 -111.682,414.443 -117.682,414.443 -117.682,414.443 -147.682,414.443 -147.682,414.443 -153.682,414.443 -159.682,420.443 -159.682,426.443 -159.682,426.443 -159.682,446.443 -159.682,446.443 -159.682,452.443 -153.682,458.443 -147.682,458.443"/>
<text text-anchor="middle" x="-132.682" y="429.643" font-family="Helvetica,sans-Serif" font-size="14.00" fill="white">:Year</text>
<polyline fill="none" stroke="black" points="-159.682,436.443 -105.682,436.443 "/>
<text text-anchor="middle" x="-132.682" y="451.643" font-family="Helvetica,sans-Serif" font-size="14.00" fill="white">2011</text>
</g>
<!-- 32081 -->
<g id="node18" class="node"><title>32081</title>
<path fill="#bdc3c7" stroke="black" d="M-918.43,-343.004C-918.43,-343.004 -888.43,-343.004 -888.43,-343.004 -882.43,-343.004 -876.43,-349.004 -876.43,-355.004 -876.43,-355.004 -876.43,-375.004 -876.43,-375.004 -876.43,-381.004 -882.43,-387.004 -888.43,-387.004 -888.43,-387.004 -918.43,-387.004 -918.43,-387.004 -924.43,-387.004 -930.43,-381.004 -930.43,-375.004 -930.43,-375.004 -930.43,-355.004 -930.43,-355.004 -930.43,-349.004 -924.43,-343.004 -918.43,-343.004"/>
<text text-anchor="middle" x="-903.43" y="-371.804" font-family="Helvetica,sans-Serif" font-size="14.00" fill="white">:Year</text>
<polyline fill="none" stroke="black" points="-930.43,-365.004 -876.43,-365.004 "/>
<text text-anchor="middle" x="-903.43" y="-349.804" font-family="Helvetica,sans-Serif" font-size="14.00" fill="white">2013</text>
</g>
<!-- 32082 -->
<g id="node19" class="node"><title>32082</title>
<path fill="#bdc3c7" stroke="black" d="M-890.666,-678.889C-890.666,-678.889 -860.666,-678.889 -860.666,-678.889 -854.666,-678.889 -848.666,-684.889 -848.666,-690.889 -848.666,-690.889 -848.666,-710.889 -848.666,-710.889 -848.666,-716.889 -854.666,-722.889 -860.666,-722.889 -860.666,-722.889 -890.666,-722.889 -890.666,-722.889 -896.666,-722.889 -902.666,-716.889 -902.666,-710.889 -902.666,-710.889 -902.666,-690.889 -902.666,-690.889 -902.666,-684.889 -896.666,-678.889 -890.666,-678.889"/>
<text text-anchor="middle" x="-875.666" y="-707.689" font-family="Helvetica,sans-Serif" font-size="14.00" fill="white">:Year</text>
<polyline fill="none" stroke="black" points="-902.666,-700.889 -848.666,-700.889 "/>
<text text-anchor="middle" x="-875.666" y="-685.689" font-family="Helvetica,sans-Serif" font-size="14.00" fill="white">2014</text>
</g>
<!-- 32087 -->
<g id="node20" class="node"><title>32087</title>
<path fill="#27ae60" stroke="black" d="M-27.3714,-429.101C-27.3714,-429.101 142.055,-429.101 142.055,-429.101 148.055,-429.101 154.055,-435.101 154.055,-441.101 154.055,-441.101 154.055,-461.101 154.055,-461.101 154.055,-467.101 148.055,-473.101 142.055,-473.101 142.055,-473.101 -27.3714,-473.101 -27.3714,-473.101 -33.3714,-473.101 -39.3714,-467.101 -39.3714,-461.101 -39.3714,-461.101 -39.3714,-441.101 -39.3714,-441.101 -39.3714,-435.101 -33.3714,-429.101 -27.3714,-429.101"/>
<text text-anchor="middle" x="57.342" y="-457.901" font-family="Helvetica,sans-Serif" font-size="14.00" fill="white">:Category</text>
<polyline fill="none" stroke="black" points="-39.3714,-451.101 154.055,-451.101 "/>
<text text-anchor="middle" x="57.342" y="-435.901" font-family="Helvetica,sans-Serif" font-size="14.00" fill="white">Actress in a Supporting Role</text>
</g>
<!-- 32089 -->
<g id="node21" class="node"><title>32089</title>
<path fill="#27ae60" stroke="black" d="M-138.609,102.852C-138.609,102.852 12.9284,102.852 12.9284,102.852 18.9284,102.852 24.9284,96.8516 24.9284,90.8516 24.9284,90.8516 24.9284,70.8516 24.9284,70.8516 24.9284,64.8516 18.9284,58.8516 12.9284,58.8516 12.9284,58.8516 -138.609,58.8516 -138.609,58.8516 -144.609,58.8516 -150.609,64.8516 -150.609,70.8516 -150.609,70.8516 -150.609,90.8516 -150.609,90.8516 -150.609,96.8516 -144.609,102.852 -138.609,102.852"/>
<text text-anchor="middle" x="-62.8402" y="74.0516" font-family="Helvetica,sans-Serif" font-size="14.00" fill="white">:Category</text>
<polyline fill="none" stroke="black" points="-150.609,80.8516 24.9284,80.8516 "/>
<text text-anchor="middle" x="-62.8402" y="96.0516" font-family="Helvetica,sans-Serif" font-size="14.00" fill="white">Actress in a Leading Role</text>
</g>
<!-- 32631 -->
<g id="node22" class="node"><title>32631</title>
<path fill="#d35400" stroke="black" d="M23.1272,32.2881C23.1272,32.2881 94.4856,32.2881 94.4856,32.2881 100.486,32.2881 106.486,26.2881 106.486,20.2881 106.486,20.2881 106.486,0.288097 106.486,0.288097 106.486,-5.7119 100.486,-11.7119 94.4856,-11.7119 94.4856,-11.7119 23.1272,-11.7119 23.1272,-11.7119 17.1272,-11.7119 11.1272,-5.7119 11.1272,0.288097 11.1272,0.288097 11.1272,20.2881 11.1272,20.2881 11.1272,26.2881 17.1272,32.2881 23.1272,32.2881"/>
<text text-anchor="middle" x="58.8064" y="3.4881" font-family="Helvetica,sans-Serif" font-size="14.00" fill="white">:Nominee</text>
<polyline fill="none" stroke="black" points="11.1272,10.2881 106.486,10.2881 "/>
<text text-anchor="middle" x="58.8064" y="25.4881" font-family="Helvetica,sans-Serif" font-size="14.00" fill="white">Meryl Streep</text>
</g>
<!-- 33588 -->
<g id="node23" class="node"><title>33588</title>
<path fill="#2c3e50" stroke="black" d="M-315.502,-697.007C-315.502,-697.007 -219.233,-697.007 -219.233,-697.007 -213.233,-697.007 -207.233,-703.007 -207.233,-709.007 -207.233,-709.007 -207.233,-729.007 -207.233,-729.007 -207.233,-735.007 -213.233,-741.007 -219.233,-741.007 -219.233,-741.007 -315.502,-741.007 -315.502,-741.007 -321.502,-741.007 -327.502,-735.007 -327.502,-729.007 -327.502,-729.007 -327.502,-709.007 -327.502,-709.007 -327.502,-703.007 -321.502,-697.007 -315.502,-697.007"/>
<text text-anchor="middle" x="-267.368" y="-725.807" font-family="Helvetica,sans-Serif" font-size="14.00" fill="white">:Movie</text>
<polyline fill="none" stroke="black" points="-327.502,-719.007 -207.233,-719.007 "/>
<text text-anchor="middle" x="-267.368" y="-703.807" font-family="Helvetica,sans-Serif" font-size="14.00" fill="white">The Deer Hunter</text>
</g>
<!-- 33598 -->
<g id="node24" class="node"><title>33598</title>
<path fill="#2c3e50" stroke="black" d="M66.5285,-703.208C66.5285,-703.208 175.99,-703.208 175.99,-703.208 181.99,-703.208 187.99,-709.208 187.99,-715.208 187.99,-715.208 187.99,-735.208 187.99,-735.208 187.99,-741.208 181.99,-747.208 175.99,-747.208 175.99,-747.208 66.5285,-747.208 66.5285,-747.208 60.5285,-747.208 54.5285,-741.208 54.5285,-735.208 54.5285,-735.208 54.5285,-715.208 54.5285,-715.208 54.5285,-709.208 60.5285,-703.208 66.5285,-703.208"/>
<text text-anchor="middle" x="121.259" y="-732.008" font-family="Helvetica,sans-Serif" font-size="14.00" fill="white">:Movie</text>
<polyline fill="none" stroke="black" points="54.5285,-725.208 187.99,-725.208 "/>
<text text-anchor="middle" x="121.259" y="-710.008" font-family="Helvetica,sans-Serif" font-size="14.00" fill="white">Kramer vs. Kramer</text>
</g>
<!-- 33631 -->
<g id="node25" class="node"><title>33631</title>
<path fill="#2c3e50" stroke="black" d="M-487.696,-195.66C-487.696,-195.66 -293.277,-195.66 -293.277,-195.66 -287.277,-195.66 -281.277,-201.66 -281.277,-207.66 -281.277,-207.66 -281.277,-227.66 -281.277,-227.66 -281.277,-233.66 -287.277,-239.66 -293.277,-239.66 -293.277,-239.66 -487.696,-239.66 -487.696,-239.66 -493.696,-239.66 -499.696,-233.66 -499.696,-227.66 -499.696,-227.66 -499.696,-207.66 -499.696,-207.66 -499.696,-201.66 -493.696,-195.66 -487.696,-195.66"/>
<text text-anchor="middle" x="-390.486" y="-224.46" font-family="Helvetica,sans-Serif" font-size="14.00" fill="white">:Movie</text>
<polyline fill="none" stroke="black" points="-499.696,-217.66 -281.277,-217.66 "/>
<text text-anchor="middle" x="-390.486" y="-202.46" font-family="Helvetica,sans-Serif" font-size="14.00" fill="white">The French Lieutenant&#39;s Woman</text>
</g>
<!-- 33642 -->
<g id="node26" class="node"><title>33642</title>
<path fill="#2c3e50" stroke="black" d="M526.654,-161.163C526.654,-161.163 619.388,-161.163 619.388,-161.163 625.388,-161.163 631.388,-167.163 631.388,-173.163 631.388,-173.163 631.388,-193.163 631.388,-193.163 631.388,-199.163 625.388,-205.163 619.388,-205.163 619.388,-205.163 526.654,-205.163 526.654,-205.163 520.654,-205.163 514.654,-199.163 514.654,-193.163 514.654,-193.163 514.654,-173.163 514.654,-173.163 514.654,-167.163 520.654,-161.163 526.654,-161.163"/>
<text text-anchor="middle" x="573.021" y="-189.963" font-family="Helvetica,sans-Serif" font-size="14.00" fill="white">:Movie</text>
<polyline fill="none" stroke="black" points="514.654,-183.163 631.388,-183.163 "/>
<text text-anchor="middle" x="573.021" y="-167.963" font-family="Helvetica,sans-Serif" font-size="14.00" fill="white">Sophie&#39;s Choice</text>
</g>
<!-- 33652 -->
<g id="node27" class="node"><title>33652</title>
<path fill="#2c3e50" stroke="black" d="M857.048,730.272C857.048,730.272 905.075,730.272 905.075,730.272 911.075,730.272 917.075,724.272 917.075,718.272 917.075,718.272 917.075,698.272 917.075,698.272 917.075,692.272 911.075,686.272 905.075,686.272 905.075,686.272 857.048,686.272 857.048,686.272 851.048,686.272 845.048,692.272 845.048,698.272 845.048,698.272 845.048,718.272 845.048,718.272 845.048,724.272 851.048,730.272 857.048,730.272"/>
<text text-anchor="middle" x="881.062" y="701.472" font-family="Helvetica,sans-Serif" font-size="14.00" fill="white">:Movie</text>
<polyline fill="none" stroke="black" points="845.048,708.272 917.075,708.272 "/>
<text text-anchor="middle" x="881.062" y="723.472" font-family="Helvetica,sans-Serif" font-size="14.00" fill="white">Silkwood</text>
</g>
<!-- 33677 -->
<g id="node28" class="node"><title>33677</title>
<path fill="#2c3e50" stroke="black" d="M-929.61,716.663C-929.61,716.663 -860.569,716.663 -860.569,716.663 -854.569,716.663 -848.569,710.663 -848.569,704.663 -848.569,704.663 -848.569,684.663 -848.569,684.663 -848.569,678.663 -854.569,672.663 -860.569,672.663 -860.569,672.663 -929.61,672.663 -929.61,672.663 -935.61,672.663 -941.61,678.663 -941.61,684.663 -941.61,684.663 -941.61,704.663 -941.61,704.663 -941.61,710.663 -935.61,716.663 -929.61,716.663"/>
<text text-anchor="middle" x="-895.089" y="687.863" font-family="Helvetica,sans-Serif" font-size="14.00" fill="white">:Movie</text>
<polyline fill="none" stroke="black" points="-941.61,694.663 -848.569,694.663 "/>
<text text-anchor="middle" x="-895.089" y="709.863" font-family="Helvetica,sans-Serif" font-size="14.00" fill="white">Out of Africa</text>
</g>
<!-- 33700 -->
<g id="node29" class="node"><title>33700</title>
<path fill="#2c3e50" stroke="black" d="M-358.04,703.999C-358.04,703.999 -308.448,703.999 -308.448,703.999 -302.448,703.999 -296.448,697.999 -296.448,691.999 -296.448,691.999 -296.448,671.999 -296.448,671.999 -296.448,665.999 -302.448,659.999 -308.448,659.999 -308.448,659.999 -358.04,659.999 -358.04,659.999 -364.04,659.999 -370.04,665.999 -370.04,671.999 -370.04,671.999 -370.04,691.999 -370.04,691.999 -370.04,697.999 -364.04,703.999 -358.04,703.999"/>
<text text-anchor="middle" x="-333.244" y="675.199" font-family="Helvetica,sans-Serif" font-size="14.00" fill="white">:Movie</text>
<polyline fill="none" stroke="black" points="-370.04,681.999 -296.448,681.999 "/>
<text text-anchor="middle" x="-333.244" y="697.199" font-family="Helvetica,sans-Serif" font-size="14.00" fill="white">Ironweed</text>
</g>
<!-- 33724 -->
<g id="node30" class="node"><title>33724</title>
<path fill="#2c3e50" stroke="black" d="M852.423,-94.2417C852.423,-94.2417 950.243,-94.2417 950.243,-94.2417 956.243,-94.2417 962.243,-100.242 962.243,-106.242 962.243,-106.242 962.243,-126.242 962.243,-126.242 962.243,-132.242 956.243,-138.242 950.243,-138.242 950.243,-138.242 852.423,-138.242 852.423,-138.242 846.423,-138.242 840.423,-132.242 840.423,-126.242 840.423,-126.242 840.423,-106.242 840.423,-106.242 840.423,-100.242 846.423,-94.2417 852.423,-94.2417"/>
<text text-anchor="middle" x="901.333" y="-123.042" font-family="Helvetica,sans-Serif" font-size="14.00" fill="white">:Movie</text>
<polyline fill="none" stroke="black" points="840.423,-116.242 962.243,-116.242 "/>
<text text-anchor="middle" x="901.333" y="-101.042" font-family="Helvetica,sans-Serif" font-size="14.00" fill="white">A Cry in the Dark</text>
</g>
<!-- 33753 -->
<g id="node31" class="node"><title>33753</title>
<path fill="#2c3e50" stroke="black" d="M513.704,310.034C513.704,310.034 659.779,310.034 659.779,310.034 665.779,310.034 671.779,304.034 671.779,298.034 671.779,298.034 671.779,278.034 671.779,278.034 671.779,272.034 665.779,266.034 659.779,266.034 659.779,266.034 513.704,266.034 513.704,266.034 507.704,266.034 501.704,272.034 501.704,278.034 501.704,278.034 501.704,298.034 501.704,298.034 501.704,304.034 507.704,310.034 513.704,310.034"/>
<text text-anchor="middle" x="586.741" y="281.234" font-family="Helvetica,sans-Serif" font-size="14.00" fill="white">:Movie</text>
<polyline fill="none" stroke="black" points="501.704,288.034 671.779,288.034 "/>
<text text-anchor="middle" x="586.741" y="303.234" font-family="Helvetica,sans-Serif" font-size="14.00" fill="white">Postcards from the Edge</text>
</g>
<!-- 33824 -->
<g id="node32" class="node"><title>33824</title>
<path fill="#2c3e50" stroke="black" d="M31.8423,768.574C31.8423,768.574 219.945,768.574 219.945,768.574 225.945,768.574 231.945,762.574 231.945,756.574 231.945,756.574 231.945,736.574 231.945,736.574 231.945,730.574 225.945,724.574 219.945,724.574 219.945,724.574 31.8423,724.574 31.8423,724.574 25.8423,724.574 19.8423,730.574 19.8423,736.574 19.8423,736.574 19.8423,756.574 19.8423,756.574 19.8423,762.574 25.8423,768.574 31.8423,768.574"/>
<text text-anchor="middle" x="125.894" y="739.774" font-family="Helvetica,sans-Serif" font-size="14.00" fill="white">:Movie</text>
<polyline fill="none" stroke="black" points="19.8423,746.574 231.945,746.574 "/>
<text text-anchor="middle" x="125.894" y="761.774" font-family="Helvetica,sans-Serif" font-size="14.00" fill="white">The Bridges of Madison County</text>
</g>
<!-- 33867 -->
<g id="node33" class="node"><title>33867</title>
<path fill="#2c3e50" stroke="black" d="M-176.545,774.29C-176.545,774.29 -87.5019,774.29 -87.5019,774.29 -81.5019,774.29 -75.5019,768.29 -75.5019,762.29 -75.5019,762.29 -75.5019,742.29 -75.5019,742.29 -75.5019,736.29 -81.5019,730.29 -87.5019,730.29 -87.5019,730.29 -176.545,730.29 -176.545,730.29 -182.545,730.29 -188.545,736.29 -188.545,742.29 -188.545,742.29 -188.545,762.29 -188.545,762.29 -188.545,768.29 -182.545,774.29 -176.545,774.29"/>
<text text-anchor="middle" x="-132.023" y="745.49" font-family="Helvetica,sans-Serif" font-size="14.00" fill="white">:Movie</text>
<polyline fill="none" stroke="black" points="-188.545,752.29 -75.5019,752.29 "/>
<text text-anchor="middle" x="-132.023" y="767.49" font-family="Helvetica,sans-Serif" font-size="14.00" fill="white">One True Thing</text>
</g>
<!-- 33882 -->
<g id="node34" class="node"><title>33882</title>
<path fill="#2c3e50" stroke="black" d="M-620.883,-407.521C-620.883,-407.521 -515.284,-407.521 -515.284,-407.521 -509.284,-407.521 -503.284,-413.521 -503.284,-419.521 -503.284,-419.521 -503.284,-439.521 -503.284,-439.521 -503.284,-445.521 -509.284,-451.521 -515.284,-451.521 -515.284,-451.521 -620.883,-451.521 -620.883,-451.521 -626.883,-451.521 -632.883,-445.521 -632.883,-439.521 -632.883,-439.521 -632.883,-419.521 -632.883,-419.521 -632.883,-413.521 -626.883,-407.521 -620.883,-407.521"/>
<text text-anchor="middle" x="-568.083" y="-436.321" font-family="Helvetica,sans-Serif" font-size="14.00" fill="white">:Movie</text>
<polyline fill="none" stroke="black" points="-632.883,-429.521 -503.284,-429.521 "/>
<text text-anchor="middle" x="-568.083" y="-414.321" font-family="Helvetica,sans-Serif" font-size="14.00" fill="white">Music of the Heart</text>
</g>
<!-- 33912 -->
<g id="node35" class="node"><title>33912</title>
<path fill="#2c3e50" stroke="black" d="M290.424,-693.604C290.424,-693.604 349.368,-693.604 349.368,-693.604 355.368,-693.604 361.368,-699.604 361.368,-705.604 361.368,-705.604 361.368,-725.604 361.368,-725.604 361.368,-731.604 355.368,-737.604 349.368,-737.604 349.368,-737.604 290.424,-737.604 290.424,-737.604 284.424,-737.604 278.424,-731.604 278.424,-725.604 278.424,-725.604 278.424,-705.604 278.424,-705.604 278.424,-699.604 284.424,-693.604 290.424,-693.604"/>
<text text-anchor="middle" x="319.896" y="-722.404" font-family="Helvetica,sans-Serif" font-size="14.00" fill="white">:Movie</text>
<polyline fill="none" stroke="black" points="278.424,-715.604 361.368,-715.604 "/>
<text text-anchor="middle" x="319.896" y="-700.404" font-family="Helvetica,sans-Serif" font-size="14.00" fill="white">Adaptation</text>
</g>
<!-- 33977 -->
<g id="node36" class="node"><title>33977</title>
<path fill="#2c3e50" stroke="black" d="M829.358,150.097C829.358,150.097 965.829,150.097 965.829,150.097 971.829,150.097 977.829,144.097 977.829,138.097 977.829,138.097 977.829,118.097 977.829,118.097 977.829,112.097 971.829,106.097 965.829,106.097 965.829,106.097 829.358,106.097 829.358,106.097 823.358,106.097 817.358,112.097 817.358,118.097 817.358,118.097 817.358,138.097 817.358,138.097 817.358,144.097 823.358,150.097 829.358,150.097"/>
<text text-anchor="middle" x="897.593" y="121.297" font-family="Helvetica,sans-Serif" font-size="14.00" fill="white">:Movie</text>
<polyline fill="none" stroke="black" points="817.358,128.097 977.829,128.097 "/>
<text text-anchor="middle" x="897.593" y="143.297" font-family="Helvetica,sans-Serif" font-size="14.00" fill="white">The Devil Wears Prada</text>
</g>
<!-- 34003 -->
<g id="node37" class="node"><title>34003</title>
<path fill="#2c3e50" stroke="black" d="M248.621,-416.495C248.621,-416.495 281.856,-416.495 281.856,-416.495 287.856,-416.495 293.856,-422.495 293.856,-428.495 293.856,-428.495 293.856,-448.495 293.856,-448.495 293.856,-454.495 287.856,-460.495 281.856,-460.495 281.856,-460.495 248.621,-460.495 248.621,-460.495 242.621,-460.495 236.621,-454.495 236.621,-448.495 236.621,-448.495 236.621,-428.495 236.621,-428.495 236.621,-422.495 242.621,-416.495 248.621,-416.495"/>
<text text-anchor="middle" x="265.239" y="-445.295" font-family="Helvetica,sans-Serif" font-size="14.00" fill="white">:Movie</text>
<polyline fill="none" stroke="black" points="236.621,-438.495 293.856,-438.495 "/>
<text text-anchor="middle" x="265.239" y="-423.295" font-family="Helvetica,sans-Serif" font-size="14.00" fill="white">Doubt</text>
</g>
<!-- 34023 -->
<g id="node38" class="node"><title>34023</title>
<path fill="#2c3e50" stroke="black" d="M551.851,63.7334C551.851,63.7334 618.554,63.7334 618.554,63.7334 624.554,63.7334 630.554,57.7334 630.554,51.7334 630.554,51.7334 630.554,31.7334 630.554,31.7334 630.554,25.7334 624.554,19.7334 618.554,19.7334 618.554,19.7334 551.851,19.7334 551.851,19.7334 545.851,19.7334 539.851,25.7334 539.851,31.7334 539.851,31.7334 539.851,51.7334 539.851,51.7334 539.851,57.7334 545.851,63.7334 551.851,63.7334"/>
<text text-anchor="middle" x="585.203" y="34.9334" font-family="Helvetica,sans-Serif" font-size="14.00" fill="white">:Movie</text>
<polyline fill="none" stroke="black" points="539.851,41.7334 630.554,41.7334 "/>
<text text-anchor="middle" x="585.203" y="56.9334" font-family="Helvetica,sans-Serif" font-size="14.00" fill="white">Julie &amp; Julia</text>
</g>
<!-- 34049 -->
<g id="node39" class="node"><title>34049</title>
<path fill="#2c3e50" stroke="black" d="M-560.454,417.115C-560.454,417.115 -482.068,417.115 -482.068,417.115 -476.068,417.115 -470.068,411.115 -470.068,405.115 -470.068,405.115 -470.068,385.115 -470.068,385.115 -470.068,379.115 -476.068,373.115 -482.068,373.115 -482.068,373.115 -560.454,373.115 -560.454,373.115 -566.454,373.115 -572.454,379.115 -572.454,385.115 -572.454,385.115 -572.454,405.115 -572.454,405.115 -572.454,411.115 -566.454,417.115 -560.454,417.115"/>
<text text-anchor="middle" x="-521.261" y="388.315" font-family="Helvetica,sans-Serif" font-size="14.00" fill="white">:Movie</text>
<polyline fill="none" stroke="black" points="-572.454,395.115 -470.068,395.115 "/>
<text text-anchor="middle" x="-521.261" y="410.315" font-family="Helvetica,sans-Serif" font-size="14.00" fill="white">The Iron Lady</text>
</g>
<!-- 34072 -->
<g id="node40" class="node"><title>34072</title>
<path fill="#2c3e50" stroke="black" d="M-670.74,191.808C-670.74,191.808 -537.879,191.808 -537.879,191.808 -531.879,191.808 -525.879,185.808 -525.879,179.808 -525.879,179.808 -525.879,159.808 -525.879,159.808 -525.879,153.808 -531.879,147.808 -537.879,147.808 -537.879,147.808 -670.74,147.808 -670.74,147.808 -676.74,147.808 -682.74,153.808 -682.74,159.808 -682.74,159.808 -682.74,179.808 -682.74,179.808 -682.74,185.808 -676.74,191.808 -670.74,191.808"/>
<text text-anchor="middle" x="-604.309" y="163.008" font-family="Helvetica,sans-Serif" font-size="14.00" fill="white">:Movie</text>
<polyline fill="none" stroke="black" points="-682.74,169.808 -525.879,169.808 "/>
<text text-anchor="middle" x="-604.309" y="185.008" font-family="Helvetica,sans-Serif" font-size="14.00" fill="white">August: Osage County</text>
</g>
<!-- 34085 -->
<g id="node41" class="node"><title>34085</title>
<path fill="#2c3e50" stroke="black" d="M-560.531,-701.992C-560.531,-701.992 -474.612,-701.992 -474.612,-701.992 -468.612,-701.992 -462.612,-707.992 -462.612,-713.992 -462.612,-713.992 -462.612,-733.992 -462.612,-733.992 -462.612,-739.992 -468.612,-745.992 -474.612,-745.992 -474.612,-745.992 -560.531,-745.992 -560.531,-745.992 -566.531,-745.992 -572.531,-739.992 -572.531,-733.992 -572.531,-733.992 -572.531,-713.992 -572.531,-713.992 -572.531,-707.992 -566.531,-701.992 -560.531,-701.992"/>
<text text-anchor="middle" x="-517.571" y="-730.792" font-family="Helvetica,sans-Serif" font-size="14.00" fill="white">:Movie</text>
<polyline fill="none" stroke="black" points="-572.531,-723.992 -462.612,-723.992 "/>
<text text-anchor="middle" x="-517.571" y="-708.792" font-family="Helvetica,sans-Serif" font-size="14.00" fill="white">Into the Woods</text>
</g>
<!-- 35028 -->
<g id="node42" class="node"><title>35028</title>
<path fill="#c0392b" stroke="black" d="M-80.3788,-239.032C-80.3788,-239.032 -9.02041,-239.032 -9.02041,-239.032 -3.02041,-239.032 2.97959,-245.032 2.97959,-251.032 2.97959,-251.032 2.97959,-271.032 2.97959,-271.032 2.97959,-277.032 -3.02041,-283.032 -9.02041,-283.032 -9.02041,-283.032 -80.3788,-283.032 -80.3788,-283.032 -86.3788,-283.032 -92.3788,-277.032 -92.3788,-271.032 -92.3788,-271.032 -92.3788,-251.032 -92.3788,-251.032 -92.3788,-245.032 -86.3788,-239.032 -80.3788,-239.032"/>
<text text-anchor="middle" x="-44.6996" y="-267.832" font-family="Helvetica,sans-Serif" font-size="14.00" fill="white">:Nomination</text>
<polyline fill="none" stroke="black" points="-92.3788,-261.032 2.97959,-261.032 "/>
<text text-anchor="middle" x="-44.6996" y="-245.832" font-family="Helvetica,sans-Serif" font-size="14.00" fill="white">Meryl Streep</text>
</g>
<!-- 35048 -->
<g id="node43" class="node"><title>35048</title>
<path fill="#8e44ad" stroke="black" d="M279.564,-212.698C279.564,-212.698 389.593,-212.698 389.593,-212.698 395.593,-212.698 401.593,-218.698 401.593,-224.698 401.593,-224.698 401.593,-244.698 401.593,-244.698 401.593,-250.698 395.593,-256.698 389.593,-256.698 389.593,-256.698 279.564,-256.698 279.564,-256.698 273.564,-256.698 267.564,-250.698 267.564,-244.698 267.564,-244.698 267.564,-224.698 267.564,-224.698 267.564,-218.698 273.564,-212.698 279.564,-212.698"/>
<text text-anchor="middle" x="334.579" y="-241.498" font-family="Helvetica,sans-Serif" font-size="14.00" fill="white">:Nomination:Award</text>
<polyline fill="none" stroke="black" points="267.564,-234.698 401.593,-234.698 "/>
<text text-anchor="middle" x="334.579" y="-219.498" font-family="Helvetica,sans-Serif" font-size="14.00" fill="white">Meryl Streep</text>
</g>
<!-- 35083 -->
<g id="node44" class="node"><title>35083</title>
<path fill="#c0392b" stroke="black" d="M-157.418,-54.7498C-157.418,-54.7498 -86.0601,-54.7498 -86.0601,-54.7498 -80.0601,-54.7498 -74.0601,-60.7498 -74.0601,-66.7498 -74.0601,-66.7498 -74.0601,-86.7498 -74.0601,-86.7498 -74.0601,-92.7498 -80.0601,-98.7498 -86.0601,-98.7498 -86.0601,-98.7498 -157.418,-98.7498 -157.418,-98.7498 -163.418,-98.7498 -169.418,-92.7498 -169.418,-86.7498 -169.418,-86.7498 -169.418,-66.7498 -169.418,-66.7498 -169.418,-60.7498 -163.418,-54.7498 -157.418,-54.7498"/>
<text text-anchor="middle" x="-121.739" y="-83.5498" font-family="Helvetica,sans-Serif" font-size="14.00" fill="white">:Nomination</text>
<polyline fill="none" stroke="black" points="-169.418,-76.7498 -74.0601,-76.7498 "/>
<text text-anchor="middle" x="-121.739" y="-61.5498" font-family="Helvetica,sans-Serif" font-size="14.00" fill="white">Meryl Streep</text>
</g>
<!-- 35102 -->
<g id="node45" class="node"><title>35102</title>
<path fill="#8e44ad" stroke="black" d="M133.988,-76.1009C133.988,-76.1009 244.018,-76.1009 244.018,-76.1009 250.018,-76.1009 256.018,-82.1009 256.018,-88.1009 256.018,-88.1009 256.018,-108.101 256.018,-108.101 256.018,-114.101 250.018,-120.101 244.018,-120.101 244.018,-120.101 133.988,-120.101 133.988,-120.101 127.988,-120.101 121.988,-114.101 121.988,-108.101 121.988,-108.101 121.988,-88.1009 121.988,-88.1009 121.988,-82.1009 127.988,-76.1009 133.988,-76.1009"/>
<text text-anchor="middle" x="189.003" y="-104.901" font-family="Helvetica,sans-Serif" font-size="14.00" fill="white">:Nomination:Award</text>
<polyline fill="none" stroke="black" points="121.988,-98.1009 256.018,-98.1009 "/>
<text text-anchor="middle" x="189.003" y="-82.9009" font-family="Helvetica,sans-Serif" font-size="14.00" fill="white">Meryl Streep</text>
</g>
<!-- 35121 -->
<g id="node46" class="node"><title>35121</title>
<path fill="#c0392b" stroke="black" d="M175.664,498.977C175.664,498.977 247.022,498.977 247.022,498.977 253.022,498.977 259.022,492.977 259.022,486.977 259.022,486.977 259.022,466.977 259.022,466.977 259.022,460.977 253.022,454.977 247.022,454.977 247.022,454.977 175.664,454.977 175.664,454.977 169.664,454.977 163.664,460.977 163.664,466.977 163.664,466.977 163.664,486.977 163.664,486.977 163.664,492.977 169.664,498.977 175.664,498.977"/>
<text text-anchor="middle" x="211.343" y="470.177" font-family="Helvetica,sans-Serif" font-size="14.00" fill="white">:Nomination</text>
<polyline fill="none" stroke="black" points="163.664,476.977 259.022,476.977 "/>
<text text-anchor="middle" x="211.343" y="492.177" font-family="Helvetica,sans-Serif" font-size="14.00" fill="white">Meryl Streep</text>
</g>
<!-- 35163 -->
<g id="node47" class="node"><title>35163</title>
<path fill="#c0392b" stroke="black" d="M-405.246,190.598C-405.246,190.598 -333.888,190.598 -333.888,190.598 -327.888,190.598 -321.888,184.598 -321.888,178.598 -321.888,178.598 -321.888,158.598 -321.888,158.598 -321.888,152.598 -327.888,146.598 -333.888,146.598 -333.888,146.598 -405.246,146.598 -405.246,146.598 -411.246,146.598 -417.246,152.598 -417.246,158.598 -417.246,158.598 -417.246,178.598 -417.246,178.598 -417.246,184.598 -411.246,190.598 -405.246,190.598"/>
<text text-anchor="middle" x="-369.567" y="161.798" font-family="Helvetica,sans-Serif" font-size="14.00" fill="white">:Nomination</text>
<polyline fill="none" stroke="black" points="-417.246,168.598 -321.888,168.598 "/>
<text text-anchor="middle" x="-369.567" y="183.798" font-family="Helvetica,sans-Serif" font-size="14.00" fill="white">Meryl Streep</text>
</g>
<!-- 35203 -->
<g id="node48" class="node"><title>35203</title>
<path fill="#c0392b" stroke="black" d="M-341.139,419.026C-341.139,419.026 -269.78,419.026 -269.78,419.026 -263.78,419.026 -257.78,413.026 -257.78,407.026 -257.78,407.026 -257.78,387.026 -257.78,387.026 -257.78,381.026 -263.78,375.026 -269.78,375.026 -269.78,375.026 -341.139,375.026 -341.139,375.026 -347.139,375.026 -353.139,381.026 -353.139,387.026 -353.139,387.026 -353.139,407.026 -353.139,407.026 -353.139,413.026 -347.139,419.026 -341.139,419.026"/>
<text text-anchor="middle" x="-305.46" y="390.226" font-family="Helvetica,sans-Serif" font-size="14.00" fill="white">:Nomination</text>
<polyline fill="none" stroke="black" points="-353.139,397.026 -257.78,397.026 "/>
<text text-anchor="middle" x="-305.46" y="412.226" font-family="Helvetica,sans-Serif" font-size="14.00" fill="white">Meryl Streep</text>
</g>
<!-- 35222 -->
<g id="node49" class="node"><title>35222</title>
<path fill="#c0392b" stroke="black" d="M343.558,177C343.558,177 414.916,177 414.916,177 420.916,177 426.916,171 426.916,165 426.916,165 426.916,145 426.916,145 426.916,139 420.916,133 414.916,133 414.916,133 343.558,133 343.558,133 337.558,133 331.558,139 331.558,145 331.558,145 331.558,165 331.558,165 331.558,171 337.558,177 343.558,177"/>
<text text-anchor="middle" x="379.237" y="148.2" font-family="Helvetica,sans-Serif" font-size="14.00" fill="white">:Nomination</text>
<polyline fill="none" stroke="black" points="331.558,155 426.916,155 "/>
<text text-anchor="middle" x="379.237" y="170.2" font-family="Helvetica,sans-Serif" font-size="14.00" fill="white">Meryl Streep</text>
</g>
<!-- 35262 -->
<g id="node50" class="node"><title>35262</title>
<path fill="#c0392b" stroke="black" d="M180.698,276.408C180.698,276.408 252.056,276.408 252.056,276.408 258.056,276.408 264.056,270.408 264.056,264.408 264.056,264.408 264.056,244.408 264.056,244.408 264.056,238.408 258.056,232.408 252.056,232.408 252.056,232.408 180.698,232.408 180.698,232.408 174.698,232.408 168.698,238.408 168.698,244.408 168.698,244.408 168.698,264.408 168.698,264.408 168.698,270.408 174.698,276.408 180.698,276.408"/>
<text text-anchor="middle" x="216.377" y="247.608" font-family="Helvetica,sans-Serif" font-size="14.00" fill="white">:Nomination</text>
<polyline fill="none" stroke="black" points="168.698,254.408 264.056,254.408 "/>
<text text-anchor="middle" x="216.377" y="269.608" font-family="Helvetica,sans-Serif" font-size="14.00" fill="white">Meryl Streep</text>
</g>
<!-- 35362 -->
<g id="node51" class="node"><title>35362</title>
<path fill="#c0392b" stroke="black" d="M44.4609,186.565C44.4609,186.565 115.819,186.565 115.819,186.565 121.819,186.565 127.819,180.565 127.819,174.565 127.819,174.565 127.819,154.565 127.819,154.565 127.819,148.565 121.819,142.565 115.819,142.565 115.819,142.565 44.4609,142.565 44.4609,142.565 38.4609,142.565 32.4609,148.565 32.4609,154.565 32.4609,154.565 32.4609,174.565 32.4609,174.565 32.4609,180.565 38.4609,186.565 44.4609,186.565"/>
<text text-anchor="middle" x="80.1401" y="157.765" font-family="Helvetica,sans-Serif" font-size="14.00" fill="white">:Nomination</text>
<polyline fill="none" stroke="black" points="32.4609,164.565 127.819,164.565 "/>
<text text-anchor="middle" x="80.1401" y="179.765" font-family="Helvetica,sans-Serif" font-size="14.00" fill="white">Meryl Streep</text>
</g>
<!-- 35422 -->
<g id="node52" class="node"><title>35422</title>
<path fill="#c0392b" stroke="black" d="M-82.9632,265.175C-82.9632,265.175 -11.6048,265.175 -11.6048,265.175 -5.60482,265.175 0.395182,259.175 0.395182,253.175 0.395182,253.175 0.395182,233.175 0.395182,233.175 0.395182,227.175 -5.60482,221.175 -11.6048,221.175 -11.6048,221.175 -82.9632,221.175 -82.9632,221.175 -88.9632,221.175 -94.9632,227.175 -94.9632,233.175 -94.9632,233.175 -94.9632,253.175 -94.9632,253.175 -94.9632,259.175 -88.9632,265.175 -82.9632,265.175"/>
<text text-anchor="middle" x="-47.284" y="236.375" font-family="Helvetica,sans-Serif" font-size="14.00" fill="white">:Nomination</text>
<polyline fill="none" stroke="black" points="-94.9632,243.175 0.395182,243.175 "/>
<text text-anchor="middle" x="-47.284" y="258.375" font-family="Helvetica,sans-Serif" font-size="14.00" fill="white">Meryl Streep</text>
</g>
<!-- 35442 -->
<g id="node53" class="node"><title>35442</title>
<path fill="#c0392b" stroke="black" d="M-243.565,-205.488C-243.565,-205.488 -172.207,-205.488 -172.207,-205.488 -166.207,-205.488 -160.207,-211.488 -160.207,-217.488 -160.207,-217.488 -160.207,-237.488 -160.207,-237.488 -160.207,-243.488 -166.207,-249.488 -172.207,-249.488 -172.207,-249.488 -243.565,-249.488 -243.565,-249.488 -249.565,-249.488 -255.565,-243.488 -255.565,-237.488 -255.565,-237.488 -255.565,-217.488 -255.565,-217.488 -255.565,-211.488 -249.565,-205.488 -243.565,-205.488"/>
<text text-anchor="middle" x="-207.886" y="-234.288" font-family="Helvetica,sans-Serif" font-size="14.00" fill="white">:Nomination</text>
<polyline fill="none" stroke="black" points="-255.565,-227.488 -160.207,-227.488 "/>
<text text-anchor="middle" x="-207.886" y="-212.288" font-family="Helvetica,sans-Serif" font-size="14.00" fill="white">Meryl Streep</text>
</g>
<!-- 35507 -->
<g id="node54" class="node"><title>35507</title>
<path fill="#c0392b" stroke="black" d="M99.0498,-239.967C99.0498,-239.967 170.408,-239.967 170.408,-239.967 176.408,-239.967 182.408,-245.967 182.408,-251.967 182.408,-251.967 182.408,-271.967 182.408,-271.967 182.408,-277.967 176.408,-283.967 170.408,-283.967 170.408,-283.967 99.0498,-283.967 99.0498,-283.967 93.0498,-283.967 87.0498,-277.967 87.0498,-271.967 87.0498,-271.967 87.0498,-251.967 87.0498,-251.967 87.0498,-245.967 93.0498,-239.967 99.0498,-239.967"/>
<text text-anchor="middle" x="134.729" y="-268.767" font-family="Helvetica,sans-Serif" font-size="14.00" fill="white">:Nomination</text>
<polyline fill="none" stroke="black" points="87.0498,-261.967 182.408,-261.967 "/>
<text text-anchor="middle" x="134.729" y="-246.767" font-family="Helvetica,sans-Serif" font-size="14.00" fill="white">Meryl Streep</text>
</g>
<!-- 35582 -->
<g id="node55" class="node"><title>35582</title>
<path fill="#c0392b" stroke="black" d="M333.354,-22.3438C333.354,-22.3438 404.712,-22.3438 404.712,-22.3438 410.712,-22.3438 416.712,-28.3438 416.712,-34.3438 416.712,-34.3438 416.712,-54.3438 416.712,-54.3438 416.712,-60.3438 410.712,-66.3438 404.712,-66.3438 404.712,-66.3438 333.354,-66.3438 333.354,-66.3438 327.354,-66.3438 321.354,-60.3438 321.354,-54.3438 321.354,-54.3438 321.354,-34.3438 321.354,-34.3438 321.354,-28.3438 327.354,-22.3438 333.354,-22.3438"/>
<text text-anchor="middle" x="369.033" y="-51.1438" font-family="Helvetica,sans-Serif" font-size="14.00" fill="white">:Nomination</text>
<polyline fill="none" stroke="black" points="321.354,-44.3438 416.712,-44.3438 "/>
<text text-anchor="middle" x="369.033" y="-29.1438" font-family="Helvetica,sans-Serif" font-size="14.00" fill="white">Meryl Streep</text>
</g>
<!-- 35622 -->
<g id="node56" class="node"><title>35622</title>
<path fill="#c0392b" stroke="black" d="M-9.67559,-100.07C-9.67559,-100.07 61.6828,-100.07 61.6828,-100.07 67.6828,-100.07 73.6828,-106.07 73.6828,-112.07 73.6828,-112.07 73.6828,-132.07 73.6828,-132.07 73.6828,-138.07 67.6828,-144.07 61.6828,-144.07 61.6828,-144.07 -9.67559,-144.07 -9.67559,-144.07 -15.6756,-144.07 -21.6756,-138.07 -21.6756,-132.07 -21.6756,-132.07 -21.6756,-112.07 -21.6756,-112.07 -21.6756,-106.07 -15.6756,-100.07 -9.67559,-100.07"/>
<text text-anchor="middle" x="26.0036" y="-128.87" font-family="Helvetica,sans-Serif" font-size="14.00" fill="white">:Nomination</text>
<polyline fill="none" stroke="black" points="-21.6756,-122.07 73.6828,-122.07 "/>
<text text-anchor="middle" x="26.0036" y="-106.87" font-family="Helvetica,sans-Serif" font-size="14.00" fill="white">Meryl Streep</text>
</g>
<!-- 35643 -->
<g id="node57" class="node"><title>35643</title>
<path fill="#c0392b" stroke="black" d="M175.74,86.8908C175.74,86.8908 247.099,86.8908 247.099,86.8908 253.099,86.8908 259.099,80.8908 259.099,74.8908 259.099,74.8908 259.099,54.8908 259.099,54.8908 259.099,48.8908 253.099,42.8908 247.099,42.8908 247.099,42.8908 175.74,42.8908 175.74,42.8908 169.74,42.8908 163.74,48.8908 163.74,54.8908 163.74,54.8908 163.74,74.8908 163.74,74.8908 163.74,80.8908 169.74,86.8908 175.74,86.8908"/>
<text text-anchor="middle" x="211.419" y="58.0908" font-family="Helvetica,sans-Serif" font-size="14.00" fill="white">:Nomination</text>
<polyline fill="none" stroke="black" points="163.74,64.8908 259.099,64.8908 "/>
<text text-anchor="middle" x="211.419" y="80.0908" font-family="Helvetica,sans-Serif" font-size="14.00" fill="white">Meryl Streep</text>
</g>
<!-- 35682 -->
<g id="node58" class="node"><title>35682</title>
<path fill="#8e44ad" stroke="black" d="M-249.292,251.558C-249.292,251.558 -139.263,251.558 -139.263,251.558 -133.263,251.558 -127.263,245.558 -127.263,239.558 -127.263,239.558 -127.263,219.558 -127.263,219.558 -127.263,213.558 -133.263,207.558 -139.263,207.558 -139.263,207.558 -249.292,207.558 -249.292,207.558 -255.292,207.558 -261.292,213.558 -261.292,219.558 -261.292,219.558 -261.292,239.558 -261.292,239.558 -261.292,245.558 -255.292,251.558 -249.292,251.558"/>
<text text-anchor="middle" x="-194.277" y="222.758" font-family="Helvetica,sans-Serif" font-size="14.00" fill="white">:Nomination:Award</text>
<polyline fill="none" stroke="black" points="-261.292,229.558 -127.263,229.558 "/>
<text text-anchor="middle" x="-194.277" y="244.758" font-family="Helvetica,sans-Serif" font-size="14.00" fill="white">Meryl Streep</text>
</g>
<!-- 35723 -->
<g id="node59" class="node"><title>35723</title>
<path fill="#c0392b" stroke="black" d="M-349.999,-21.4787C-349.999,-21.4787 -278.641,-21.4787 -278.641,-21.4787 -272.641,-21.4787 -266.641,-27.4787 -266.641,-33.4787 -266.641,-33.4787 -266.641,-53.4787 -266.641,-53.4787 -266.641,-59.4787 -272.641,-65.4787 -278.641,-65.4787 -278.641,-65.4787 -349.999,-65.4787 -349.999,-65.4787 -355.999,-65.4787 -361.999,-59.4787 -361.999,-53.4787 -361.999,-53.4787 -361.999,-33.4787 -361.999,-33.4787 -361.999,-27.4787 -355.999,-21.4787 -349.999,-21.4787"/>
<text text-anchor="middle" x="-314.32" y="-50.2787" font-family="Helvetica,sans-Serif" font-size="14.00" fill="white">:Nomination</text>
<polyline fill="none" stroke="black" points="-361.999,-43.4787 -266.641,-43.4787 "/>
<text text-anchor="middle" x="-314.32" y="-28.2787" font-family="Helvetica,sans-Serif" font-size="14.00" fill="white">Meryl Streep</text>
</g>
<!-- 35748 -->
<g id="node60" class="node"><title>35748</title>
<path fill="#c0392b" stroke="black" d="M-166.677,-421.215C-166.677,-421.215 -95.3185,-421.215 -95.3185,-421.215 -89.3185,-421.215 -83.3185,-427.215 -83.3185,-433.215 -83.3185,-433.215 -83.3185,-453.215 -83.3185,-453.215 -83.3185,-459.215 -89.3185,-465.215 -95.3185,-465.215 -95.3185,-465.215 -166.677,-465.215 -166.677,-465.215 -172.677,-465.215 -178.677,-459.215 -178.677,-453.215 -178.677,-453.215 -178.677,-433.215 -178.677,-433.215 -178.677,-427.215 -172.677,-421.215 -166.677,-421.215"/>
<text text-anchor="middle" x="-130.998" y="-450.015" font-family="Helvetica,sans-Serif" font-size="14.00" fill="white">:Nomination</text>
<polyline fill="none" stroke="black" points="-178.677,-443.215 -83.3185,-443.215 "/>
<text text-anchor="middle" x="-130.998" y="-428.015" font-family="Helvetica,sans-Serif" font-size="14.00" fill="white">Meryl Streep</text>
</g>
<!-- 78780 -->
<g id="node61" class="node"><title>78780</title>
<path fill="#bdc3c7" stroke="black" d="M-904.228,-76.2769C-904.228,-76.2769 -874.228,-76.2769 -874.228,-76.2769 -868.228,-76.2769 -862.228,-82.2769 -862.228,-88.2769 -862.228,-88.2769 -862.228,-108.277 -862.228,-108.277 -862.228,-114.277 -868.228,-120.277 -874.228,-120.277 -874.228,-120.277 -904.228,-120.277 -904.228,-120.277 -910.228,-120.277 -916.228,-114.277 -916.228,-108.277 -916.228,-108.277 -916.228,-88.2769 -916.228,-88.2769 -916.228,-82.2769 -910.228,-76.2769 -904.228,-76.2769"/>
<text text-anchor="middle" x="-889.228" y="-105.077" font-family="Helvetica,sans-Serif" font-size="14.00" fill="white">:Year</text>
<polyline fill="none" stroke="black" points="-916.228,-98.2769 -862.228,-98.2769 "/>
<text text-anchor="middle" x="-889.228" y="-83.0769" font-family="Helvetica,sans-Serif" font-size="14.00" fill="white">2016</text>
</g>
<!-- 78800 -->
<g id="node62" class="node"><title>78800</title>
<path fill="#c0392b" stroke="black" d="M-241.082,86.2593C-241.082,86.2593 -169.724,86.2593 -169.724,86.2593 -163.724,86.2593 -157.724,80.2593 -157.724,74.2593 -157.724,74.2593 -157.724,54.2593 -157.724,54.2593 -157.724,48.2593 -163.724,42.2593 -169.724,42.2593 -169.724,42.2593 -241.082,42.2593 -241.082,42.2593 -247.082,42.2593 -253.082,48.2593 -253.082,54.2593 -253.082,54.2593 -253.082,74.2593 -253.082,74.2593 -253.082,80.2593 -247.082,86.2593 -241.082,86.2593"/>
<text text-anchor="middle" x="-205.403" y="57.4593" font-family="Helvetica,sans-Serif" font-size="14.00" fill="white">:Nomination</text>
<polyline fill="none" stroke="black" points="-253.082,64.2593 -157.724,64.2593 "/>
<text text-anchor="middle" x="-205.403" y="79.4593" font-family="Helvetica,sans-Serif" font-size="14.00" fill="white">Meryl Streep</text>
</g>
<!-- 78923 -->
<g id="node63" class="node"><title>78923</title>
<path fill="#2c3e50" stroke="black" d="M-986.421,160.584C-986.421,160.584 -845.028,160.584 -845.028,160.584 -839.028,160.584 -833.028,154.584 -833.028,148.584 -833.028,148.584 -833.028,128.584 -833.028,128.584 -833.028,122.584 -839.028,116.584 -845.028,116.584 -845.028,116.584 -986.421,116.584 -986.421,116.584 -992.421,116.584 -998.421,122.584 -998.421,128.584 -998.421,128.584 -998.421,148.584 -998.421,148.584 -998.421,154.584 -992.421,160.584 -986.421,160.584"/>
<text text-anchor="middle" x="-915.725" y="131.784" font-family="Helvetica,sans-Serif" font-size="14.00" fill="white">:Movie</text>
<polyline fill="none" stroke="black" points="-998.421,138.584 -833.028,138.584 "/>
<text text-anchor="middle" x="-915.725" y="153.784" font-family="Helvetica,sans-Serif" font-size="14.00" fill="white">Florence Foster Jenkins</text>
</g>
</g>
</svg>
